<?xml version="1.0" standalone="no"?>
<!DOCTYPE svg PUBLIC "-//W3C//DTD SVG 20010904//EN"
 "http://www.w3.org/TR/2001/REC-SVG-20010904/DTD/svg10.dtd">
<svg version="1.0" xmlns="http://www.w3.org/2000/svg"
 width="300.000000pt" height="154.000000pt" viewBox="0 0 300.000000 154.000000"
 preserveAspectRatio="xMidYMid meet">
<metadata>
Created by potrace 1.10, written by Peter Selinger 2001-2011
</metadata>
<g transform="translate(0.000000,154.000000) scale(0.100000,-0.100000)"
fill="#000000" stroke="none">
<path d="M34 1515 c-9 -14 -20 -22 -25 -19 -5 3 -9 0 -9 -5 0 -27 41 -4 64 37
14 23 -14 12 -30 -13z"/>
<path d="M292 1513 c-7 -22 -5 -34 10 -55 18 -26 47 -41 33 -18 -3 6 -1 10 4
10 6 0 11 -4 11 -9 0 -5 10 -11 21 -14 21 -6 21 -6 -1 18 -12 13 -28 21 -35
19 -8 -3 -18 4 -25 15 -7 14 -7 21 0 21 5 0 10 -4 10 -10 0 -5 7 -7 15 -4 12
5 12 9 -2 30 -20 31 -29 30 -41 -3z"/>
<path d="M592 1515 c-17 -14 -35 -25 -40 -25 -6 0 -21 -15 -33 -32 -13 -18
-29 -39 -36 -46 -21 -22 -15 6 8 40 12 16 19 31 17 33 -2 3 -17 -16 -33 -41
-16 -25 -33 -48 -38 -51 -6 -3 -7 -1 -3 5 5 8 -2 12 -18 12 -14 0 -26 -4 -26
-10 0 -5 6 -10 14 -10 11 0 14 -14 11 -62 -2 -48 0 -59 9 -46 8 11 15 12 27 5
18 -12 53 -2 45 12 -4 5 -20 12 -36 16 -23 5 -30 12 -30 30 0 14 8 28 18 33
20 11 62 -2 62 -19 0 -7 -7 -8 -17 -4 -29 11 -35 11 -40 -1 -2 -6 9 -14 25
-17 34 -7 46 -30 32 -57 -8 -16 -21 -19 -63 -18 -51 1 -54 3 -72 42 l-20 40
-3 -42 c-5 -65 -20 -50 -24 23 -4 77 8 83 43 23 21 -39 24 -41 27 -20 2 13 -1
36 -8 51 -9 23 -18 28 -50 29 -32 2 -38 -1 -33 -14 5 -14 3 -15 -14 -6 -21 12
-41 11 -62 -2 -10 -7 -13 -5 -9 5 4 10 -3 14 -28 14 -19 0 -34 -4 -34 -10 0
-5 -5 -2 -11 7 -7 13 -21 17 -50 16 -36 -1 -38 -3 -24 -18 12 -13 14 -30 9
-76 -4 -32 -11 -67 -16 -76 -7 -16 -4 -18 27 -18 26 0 35 4 35 17 0 15 2 14
15 -3 14 -19 14 -19 15 1 1 18 2 18 11 3 7 -13 15 -15 33 -8 13 5 27 6 30 3 3
-3 69 -7 146 -7 94 -1 144 -6 152 -14 9 -9 8 -12 -5 -12 -14 0 -16 -4 -9 -17
5 -10 12 -39 14 -65 5 -42 3 -48 -13 -48 -11 0 -19 -5 -19 -11 0 -5 4 -8 9 -4
9 5 27 -32 23 -48 -1 -5 6 -6 17 -2 11 3 38 1 61 -6 33 -10 43 -10 53 0 10 11
7 12 -12 6 -15 -5 -21 -4 -17 3 3 6 -2 13 -11 15 -10 2 -6 4 9 2 15 -1 25 2
22 6 -10 17 19 20 36 4 12 -11 29 -16 44 -13 15 3 23 1 20 -4 -4 -6 -21 -8
-40 -6 -23 3 -35 -1 -39 -10 -9 -24 -1 -24 64 -2 33 11 70 20 81 20 11 0 20 5
20 10 0 6 4 10 8 10 5 0 9 -7 9 -15 0 -8 -3 -12 -7 -10 -4 2 -22 -9 -40 -25
-19 -17 -38 -30 -43 -30 -6 0 -7 -3 -4 -7 4 -3 -1 -12 -11 -19 -11 -9 -13 -13
-4 -14 7 0 23 11 36 25 13 14 28 25 33 25 5 0 25 14 43 30 29 26 41 30 84 29
28 -1 40 -4 26 -6 -14 -3 -31 -10 -37 -15 -9 -7 -13 -7 -13 1 0 18 -21 13 -27
-7 -2 -10 -16 -23 -31 -30 -15 -7 -38 -21 -51 -31 l-25 -19 30 5 c16 3 26 2
22 -2 -5 -5 3 -27 17 -51 23 -39 25 -74 4 -74 -5 0 -9 -4 -9 -10 0 -5 6 -8 13
-6 6 1 9 1 5 -1 -15 -8 -8 -22 7 -17 10 4 15 0 15 -11 0 -9 -4 -13 -10 -10 -5
3 -10 1 -10 -4 0 -18 -16 -12 -17 7 -1 9 -18 53 -38 97 -34 74 -38 79 -51 60
-12 -17 -12 -20 1 -28 8 -4 15 -15 15 -23 0 -8 4 -13 8 -10 5 3 19 -12 31 -34
l22 -39 -31 -16 c-16 -8 -30 -18 -30 -21 0 -2 9 0 19 6 11 5 24 10 30 10 15 0
14 -27 -1 -33 -8 -3 -5 -6 5 -6 10 -1 31 6 47 14 30 15 30 15 30 -13 0 -15 -5
-33 -12 -40 -9 -9 -8 -17 2 -37 17 -32 8 -40 -43 -40 -23 -1 -48 -5 -56 -9 -9
-6 -12 -5 -8 1 11 17 -41 39 -62 26 -10 -6 -24 -8 -31 -3 -8 5 -22 4 -31 -1
-25 -13 -49 -11 -46 4 1 6 -5 12 -14 12 -9 0 -23 6 -31 13 -8 6 -18 9 -22 5
-4 -4 -11 -1 -16 7 -8 13 -10 13 -10 -1 0 -11 -8 -16 -22 -15 -17 1 -23 7 -22
24 0 13 -6 23 -15 24 -9 0 -22 2 -28 2 -7 1 -21 9 -32 18 -14 12 -21 13 -24 4
-6 -14 17 -48 27 -39 9 9 36 -29 31 -45 -3 -9 0 -10 15 -2 10 5 21 10 23 10 5
0 1 -36 -5 -60 -3 -8 -3 -12 -1 -8 2 4 11 4 20 1 13 -5 15 -2 11 14 -9 33 7
51 31 36 16 -10 19 -10 15 0 -3 8 2 14 11 14 13 0 13 -3 1 -22 -7 -11 -16 -30
-19 -40 -4 -18 -5 -17 -6 3 -1 30 -21 28 -21 -3 0 -14 -4 -25 -8 -25 -13 0 -7
-44 7 -46 6 -1 7 0 2 2 -16 9 1 44 20 44 20 0 41 -37 31 -55 -3 -5 2 -4 11 4
16 13 16 15 1 32 -14 16 -14 20 3 45 10 16 17 29 16 31 -7 7 -2 23 6 23 5 0 7
-9 4 -20 -7 -26 21 -37 42 -16 34 33 61 9 48 -42 -3 -15 -13 -33 -22 -40 -10
-8 -4 -7 15 2 35 17 44 33 44 77 0 16 5 29 11 29 6 0 8 -7 5 -16 -5 -14 -4
-15 9 -4 21 17 19 1 -2 -23 -11 -13 -12 -17 -4 -12 10 6 13 4 9 -6 -3 -9 2
-26 11 -38 l18 -23 1 38 c1 21 7 42 13 48 8 8 9 0 4 -32 l-7 -43 24 23 c12 13
20 25 16 26 -16 7 -7 30 12 35 15 4 20 1 18 -10 -5 -27 21 -26 28 1 3 14 10
26 14 26 14 0 21 -32 9 -46 -6 -7 -8 -18 -4 -23 3 -7 0 -8 -9 -5 -9 4 -16 1
-16 -6 0 -8 -9 -10 -25 -6 -21 5 -25 3 -25 -15 0 -14 5 -19 15 -16 8 4 17 2
20 -2 5 -8 -17 -21 -35 -21 -5 0 -10 10 -12 22 -3 22 -3 22 -22 2 -11 -10 -22
-19 -25 -19 -3 -1 -17 -7 -31 -15 -14 -7 -26 -13 -27 -12 -2 1 -6 2 -10 2 -5
0 -1 -5 7 -10 13 -9 13 -10 0 -10 -9 0 -16 -9 -17 -20 -2 -25 0 -25 32 4 27
25 105 52 127 43 20 -7 85 64 91 101 5 25 3 32 -9 32 -18 0 -14 24 4 26 7 1
17 2 22 3 6 0 10 6 10 12 0 7 -12 10 -30 7 -25 -4 -31 -1 -36 18 -6 25 1 44
17 44 5 0 7 -12 4 -27 -3 -16 -2 -22 1 -15 4 10 9 10 20 1 7 -6 19 -9 26 -6 9
4 7 6 -3 6 -9 1 -19 8 -23 16 -8 22 26 19 52 -3 l22 -19 -23 -21 c-13 -12 -28
-22 -35 -22 -6 0 -9 -7 -5 -16 5 -13 7 -13 14 -2 13 19 11 6 -5 -40 -8 -22
-11 -44 -8 -48 4 -4 2 -4 -4 -1 -7 4 -14 -2 -17 -13 -4 -17 -1 -19 19 -14 15
4 24 2 24 -5 0 -6 -15 -12 -32 -12 -26 -1 -23 -3 17 -10 27 -4 51 -6 53 -5 2
2 -9 16 -23 30 l-26 26 22 40 c12 21 26 37 31 34 4 -3 8 7 8 23 -1 27 -1 27
-15 9 -16 -21 -21 -11 -7 12 5 7 16 10 26 6 14 -5 16 -2 11 19 -4 14 -2 28 4
31 6 4 11 14 11 23 0 8 11 24 25 35 28 21 32 38 11 38 -8 0 -13 11 -13 26 0
22 3 25 24 21 13 -2 30 2 38 10 8 8 19 12 24 9 5 -3 7 3 4 14 -6 21 18 37 37
25 8 -5 7 -12 -2 -23 -10 -14 -10 -15 2 -4 20 17 33 15 26 -4 -5 -13 -4 -14 7
-6 17 14 27 6 28 -22 0 -12 3 -15 6 -8 4 10 8 10 19 1 15 -12 20 -34 6 -25 -5
3 -9 -1 -9 -9 0 -13 3 -13 18 1 22 20 79 10 79 -13 0 -11 3 -13 13 -5 8 7 21
6 42 -3 l30 -13 -25 -9 c-15 -6 -37 -7 -55 -2 -16 5 -37 9 -45 8 -8 -1 5 -7
30 -13 25 -7 54 -9 65 -5 22 7 23 7 26 -71 1 -33 4 -38 15 -29 10 8 15 8 19
-2 7 -17 65 -22 101 -9 41 16 38 6 -8 -24 -39 -25 -43 -26 -55 -11 -7 10 -19
15 -28 12 -8 -4 -15 -2 -15 4 0 6 -4 8 -8 5 -5 -3 -25 4 -45 14 -21 11 -40 19
-43 18 -4 -2 -14 11 -23 27 -9 17 -25 31 -35 33 -17 3 -17 1 3 -25 44 -60 50
-65 62 -57 7 4 10 3 5 -4 -3 -5 0 -13 6 -15 7 -3 3 -6 -9 -6 -23 -1 -73 50
-73 75 0 8 -5 14 -11 14 -6 0 -8 -11 -4 -28 4 -20 1 -33 -10 -42 -20 -17 -19
-25 8 -53 33 -35 94 -69 119 -67 13 1 36 2 52 1 l30 -1 -29 -30 c-27 -28 -53
-41 -40 -20 3 6 2 10 -3 10 -11 0 -26 -50 -17 -58 3 -3 11 1 18 9 6 9 31 30
53 47 43 33 109 92 103 92 -2 0 -29 -7 -59 -15 -80 -22 -132 -19 -166 7 -27
22 -64 61 -61 65 1 1 31 -6 67 -14 75 -18 230 -29 230 -16 0 15 69 83 84 83 7
0 18 6 24 13 8 9 4 12 -15 14 -19 1 -22 -1 -12 -8 11 -7 11 -9 -3 -9 -9 0 -18
4 -20 10 -2 6 -8 6 -18 0 -13 -8 -12 -10 4 -10 15 0 16 -3 6 -14 -12 -15 -44
-10 -34 5 3 5 -2 9 -10 9 -9 0 -15 -5 -13 -11 1 -6 -4 -14 -12 -17 -9 -3 -11
0 -6 8 6 10 4 12 -8 7 -21 -8 -32 10 -18 27 7 8 22 11 38 8 19 -4 24 -2 18 8
-5 8 -4 11 2 7 5 -3 25 -2 45 2 20 5 44 4 54 -1 11 -5 6 2 -10 17 -16 15 -35
24 -43 20 -11 -3 -13 -1 -9 10 3 8 2 15 -2 15 -4 0 -7 12 -6 28 2 42 3 44 15
36 8 -4 7 -9 -2 -14 -9 -6 -4 -17 19 -40 27 -27 35 -30 54 -20 21 10 21 10 6
-3 -21 -17 -23 -28 -5 -24 6 1 12 -6 12 -15 0 -10 10 -25 23 -33 24 -18 30
-37 8 -29 -8 3 -17 0 -22 -7 -4 -7 -3 -10 2 -7 14 9 54 -10 54 -25 0 -20 22
-16 47 10 18 19 19 24 7 34 -12 10 -13 9 -9 -4 4 -10 -1 -18 -15 -22 -12 -4
-22 -5 -23 -3 -46 89 -61 131 -45 125 7 -2 12 -13 11 -23 -1 -10 0 -13 3 -6 3
6 10 10 15 6 5 -3 9 0 9 5 0 6 -4 11 -9 11 -16 0 -71 58 -71 75 0 10 5 13 13
9 8 -5 7 -2 -2 10 -11 13 -16 14 -22 4 -7 -10 -9 -10 -9 0 0 8 -8 10 -23 7
-16 -4 -31 1 -48 15 -19 17 -20 20 -5 16 16 -6 17 -4 6 9 -11 13 -9 15 11 13
13 -2 30 -9 38 -16 16 -16 24 -11 15 11 -4 12 -17 15 -52 13 -38 -2 -55 2 -89
25 -23 16 -49 29 -57 29 -23 0 -83 57 -90 87 -4 15 -2 30 5 37 9 8 10 7 6 -6
-4 -10 0 -23 9 -30 9 -7 23 -20 33 -29 9 -8 22 -14 28 -12 7 3 17 -5 23 -16 6
-12 15 -21 21 -21 5 0 2 12 -8 26 -15 24 -10 22 42 -15 65 -44 89 -53 60 -21
-10 11 -20 18 -23 16 -2 -3 -15 5 -28 18 -14 12 -41 28 -62 35 -40 15 -82 48
-82 66 0 6 -7 20 -16 31 -15 18 -15 18 -10 -7 4 -16 1 -31 -7 -37 -7 -6 -14
-24 -15 -41 -2 -25 5 -35 43 -61 25 -17 45 -28 45 -24 0 3 7 1 15 -6 12 -10
12 -15 0 -34 -13 -20 -13 -23 0 -23 8 0 17 9 21 19 3 10 10 18 16 18 16 0 108
-95 108 -111 -1 -11 -3 -10 -13 2 -10 13 -15 14 -24 4 -10 -10 -9 -16 3 -26
12 -10 13 -9 8 7 -6 15 -4 17 6 7 15 -14 22 -83 8 -83 -5 0 -17 -8 -26 -18
-10 -10 -13 -12 -8 -5 6 9 5 18 -2 25 -8 8 -15 1 -26 -26 -8 -20 -20 -36 -27
-36 -8 0 -8 5 2 16 18 22 20 45 6 64 -10 13 -10 13 4 2 14 -10 18 -10 23 3 3
9 2 14 -3 10 -5 -3 -12 1 -14 7 -8 19 -26 -11 -28 -44 -1 -16 -3 -32 -4 -38
-1 -5 -3 -15 -4 -21 0 -5 -6 -7 -13 -3 -7 4 -8 3 -4 -4 4 -6 13 -9 21 -5 8 3
15 0 15 -5 0 -15 -16 -23 -32 -17 -16 7 -39 53 -28 57 5 2 4 24 -2 51 -11 46
-12 47 -50 47 -25 0 -37 4 -33 11 4 6 1 9 -6 7 -8 -1 -33 3 -57 11 -41 14 -42
16 -40 53 2 21 6 38 9 38 13 0 17 39 5 54 -7 11 -16 13 -26 6 -12 -8 -12 -10
3 -16 9 -3 17 -11 17 -17 0 -5 -9 -2 -20 8 -11 10 -17 21 -15 25 3 4 -3 11
-12 14 -11 5 -13 10 -7 14 7 5 1 20 -16 44 -27 37 -28 37 -32 13 -3 -13 -2
-22 2 -20 11 7 34 -23 35 -46 1 -10 8 -27 17 -36 25 -31 -3 -76 -35 -56 -7 4
-16 8 -22 8 -5 0 -9 8 -7 18 2 11 -4 17 -16 17 -10 0 -36 15 -58 33 -21 19
-46 32 -54 29 -25 -8 -50 -34 -43 -45 4 -6 0 -8 -9 -5 -8 4 -31 -8 -53 -26
-30 -25 -37 -37 -31 -52 7 -19 8 -19 21 0 8 10 12 23 9 27 -10 16 13 9 27 -8
12 -15 12 -16 -4 -10 -11 4 -16 3 -12 -4 4 -5 15 -7 26 -4 12 4 19 2 17 -5 -2
-7 3 -15 11 -18 8 -3 11 0 7 7 -4 6 0 14 9 18 10 3 28 17 41 30 27 26 70 28
68 3 -4 -50 -21 -83 -38 -73 -4 3 -2 9 5 14 10 6 9 10 -6 15 -11 5 -20 3 -23
-4 -2 -7 -10 -12 -18 -12 -9 0 -12 -5 -8 -12 5 -8 2 -9 -9 -5 -25 10 -45 -2
-40 -23 5 -18 28 -20 56 -4 8 5 8 2 -2 -9 -19 -24 -84 -19 -77 6 4 17 -9 25
-16 9 -2 -4 -21 -17 -44 -28 l-41 -20 -12 26 c-21 43 -25 56 -9 36 12 -15 17
-16 23 -6 5 8 1 18 -11 27 -20 15 -29 78 -12 89 7 4 6 9 -1 14 -13 8 49 60 76
64 9 2 22 11 29 21 8 11 14 13 14 6 0 -7 5 -9 10 -6 6 3 10 2 10 -4 0 -5 -9
-12 -19 -16 -11 -3 -39 -27 -63 -53 -23 -26 -47 -46 -51 -44 -5 1 -6 -2 -2 -7
3 -6 12 -8 20 -4 11 4 13 1 9 -11 -3 -9 -1 -16 6 -16 6 0 10 10 8 21 -2 13 5
26 16 33 34 19 46 29 111 91 56 53 107 125 89 125 -4 0 -1 7 6 15 15 18 7 19
-20 3 -17 -11 -22 -10 -29 1 -6 9 -11 10 -15 2 -4 -6 -2 -11 4 -11 6 0 8 -4 5
-10 -3 -5 -1 -10 6 -10 8 0 5 -7 -6 -20 -18 -20 -42 -17 -28 4 4 7 -2 1 -14
-13 -12 -14 -20 -28 -18 -32 3 -4 -2 -12 -9 -18 -12 -10 -14 -9 -10 6 3 11 -1
37 -8 58 -11 34 -11 45 0 68 14 28 9 47 -11 47 -7 0 -6 -4 3 -10 26 -17 -10
-12 -44 5 -39 20 -159 20 -176 0 -7 -8 -9 -15 -6 -15 4 0 2 -9 -4 -20 -6 -11
-15 -20 -21 -20 -6 0 -6 7 1 19 17 32 2 51 -40 51 -22 0 -42 -4 -45 -10 -3 -5
-12 -10 -18 -10 -7 0 -6 4 3 11 12 8 9 9 -12 5 -16 -4 -40 -3 -55 1 -20 6 -3
9 64 13 50 3 95 8 98 12 11 11 -5 48 -21 48 -8 0 -14 -10 -14 -25 0 -14 -4
-25 -9 -25 -5 0 -9 29 -10 64 l-1 64 37 -1 38 -2 0 -55 c0 -38 4 -55 13 -54 6
1 18 2 26 3 18 1 21 101 3 101 -7 0 -18 9 -25 20 -7 11 -18 20 -25 20 -8 0 -7
-4 3 -10 10 -7 -28 -10 -117 -10 -72 0 -140 -3 -150 -6 -15 -6 -16 -5 -5 7 7
8 28 12 50 10 27 -1 43 3 53 15 8 10 36 35 62 56 54 42 52 49 -6 18 -21 -11
-43 -17 -49 -14 -6 4 -8 3 -4 -4 3 -6 -3 -17 -14 -25 -11 -7 -17 -17 -12 -22
4 -5 2 -5 -5 -2 -6 4 -13 1 -16 -5 -2 -7 -8 -10 -12 -6 -4 4 14 32 40 63 51
60 54 69 7 30z m222 -158 c5 5 3 -3 -4 -17 -9 -17 -10 -25 -1 -28 6 -2 11 -8
11 -14 0 -7 -5 -6 -14 1 -8 7 -16 8 -18 4 -3 -4 -3 -1 0 7 7 21 7 41 -1 70 -6
22 -5 22 6 -3 7 -15 17 -24 21 -20z m-677 26 c-2 -5 2 -21 9 -38 l12 -30 10
25 c5 14 11 30 13 37 3 8 9 9 19 3 12 -8 12 -11 -3 -28 -9 -10 -22 -34 -29
-52 l-11 -34 -18 39 -18 40 0 -42 c-1 -24 -6 -43 -12 -43 -6 0 -9 24 -7 65 3
55 6 65 21 65 10 0 16 -3 14 -7z m463 -12 c0 -8 -6 -11 -15 -7 -12 4 -15 -5
-15 -49 0 -30 -4 -55 -10 -55 -5 0 -10 23 -10 50 0 38 -4 50 -15 50 -8 0 -15
6 -15 13 0 9 14 13 40 12 27 0 40 -4 40 -14z m90 -3 c0 -6 -13 -8 -30 -6 -24
4 -30 1 -30 -14 0 -11 7 -18 20 -18 11 0 20 -4 20 -9 0 -5 -9 -7 -20 -4 -15 4
-20 0 -20 -16 0 -17 6 -21 30 -21 17 0 30 -4 30 -10 0 -5 -18 -10 -40 -10
l-40 0 0 63 0 63 40 -4 c22 -2 40 -9 40 -14z m-390 -8 c24 -24 26 -63 4 -84
-49 -49 -114 34 -67 86 21 23 38 23 63 -2z m-90 -55 c0 -25 -4 -45 -10 -45
-11 0 -14 73 -3 83 11 12 13 8 13 -38z m336 -72 c-7 -7 -26 7 -26 19 0 6 6 6
15 -2 9 -7 13 -15 11 -17z m140 -39 c-5 -14 -9 -15 -19 -5 -9 9 -9 14 3 21 18
11 24 6 16 -16z m214 22 c0 -11 -19 -15 -25 -6 -3 5 1 10 9 10 9 0 16 -2 16
-4z m-271 -15 c10 -6 12 -19 8 -41 -4 -20 -1 -42 8 -61 14 -26 14 -29 0 -29
-9 0 -21 14 -26 30 -6 17 -16 30 -21 30 -6 0 -8 -13 -6 -30 4 -25 1 -30 -17
-30 -21 0 -22 2 -12 55 7 41 6 59 -3 70 -11 13 -7 15 21 15 19 0 40 -4 48 -9z
m111 -6 c-11 -14 -8 -83 6 -120 4 -8 -2 -11 -18 -8 -21 4 -23 9 -23 74 0 66 1
69 24 69 20 0 21 -2 11 -15z m120 -7 c0 -21 0 -21 -14 -2 -14 18 -15 18 -22 1
-5 -14 1 -25 21 -41 19 -15 26 -29 23 -46 -2 -21 -9 -26 -42 -28 -25 -2 -36 0
-31 7 3 6 3 16 -1 23 -5 7 -11 5 -21 -7 -12 -17 -13 -15 -13 23 0 39 8 51 23
35 4 -3 1 -13 -5 -22 -7 -9 -8 -13 -4 -9 5 4 19 -4 31 -18 13 -15 28 -23 34
-20 8 5 3 17 -14 38 -27 32 -32 57 -13 76 20 20 48 14 48 -10z m127 -3 c2 -11
0 -14 -3 -7 -10 22 -34 13 -34 -13 0 -26 15 -34 23 -12 3 6 6 2 6 -10 1 -16
-3 -21 -14 -17 -11 5 -15 -1 -15 -20 0 -27 24 -37 33 -13 3 7 6 5 6 -5 1 -14
-7 -18 -36 -18 l-38 0 0 70 0 71 35 -3 c26 -2 35 -8 37 -23z m-89 -30 c0 -13
-4 -22 -9 -19 -5 3 -9 16 -9 30 0 14 4 23 9 20 5 -3 9 -17 9 -31z m-210 -20
c2 -25 -11 -34 -22 -16 -7 11 3 41 13 41 4 0 8 -11 9 -25z m442 -35 c0 -5 -4
-10 -10 -10 -5 0 -9 -5 -7 -12 1 -7 -4 -13 -10 -14 -7 -1 -15 -2 -18 -3 -3 0
-8 -1 -12 0 -4 0 -11 -8 -15 -18 -5 -13 -6 -9 -4 12 2 24 8 30 26 31 13 1 26
7 28 13 5 14 22 15 22 1z m-340 -46 c0 -2 -7 -4 -15 -4 -8 0 -15 4 -15 10 0 5
7 7 15 4 8 -4 15 -8 15 -10z m97 -89 c-15 -14 -33 -25 -39 -25 -14 0 -6 8 29
31 39 25 43 22 10 -6z m230 -16 c3 -16 -49 -59 -75 -63 -9 -2 -20 2 -24 7 -9
14 21 36 51 37 19 0 21 3 12 14 -9 11 -9 15 1 19 19 8 33 2 35 -14z m-247 -24
c-7 -8 -17 -12 -22 -9 -6 4 -5 10 3 15 22 14 33 10 19 -6z m445 -40 c-3 -34
-9 -39 -25 -20 -8 10 -9 15 -1 15 6 0 11 9 11 21 0 11 4 18 9 15 5 -4 8 -17 6
-31z m421 -108 c2 -24 0 -26 -17 -17 -10 6 -19 15 -19 21 0 6 4 7 10 4 6 -4 7
1 3 11 -4 11 -2 15 7 12 7 -2 14 -16 16 -31z m-722 -16 c3 -5 26 -6 51 -3 27
3 45 1 45 -6 0 -13 -38 -23 -46 -11 -3 5 -10 9 -16 9 -6 0 -4 -8 5 -18 10 -10
17 -27 17 -37 0 -14 -8 -11 -37 18 -28 29 -39 34 -50 25 -17 -13 -28 -4 -20
17 7 16 42 21 51 6z m-68 -10 c-9 -13 19 -32 38 -25 9 3 16 2 16 -4 0 -5 9
-12 20 -15 11 -3 20 -12 20 -21 0 -13 -4 -12 -21 5 -16 16 -30 20 -60 17 -42
-4 -46 0 -26 21 10 11 10 13 0 7 -7 -4 -13 -3 -13 3 0 5 6 12 13 14 18 8 19 8
13 -2z m769 -41 c3 -6 -4 -10 -17 -10 -18 0 -20 2 -8 10 19 12 18 12 25 0z
m-1245 -39 c0 -6 -4 -13 -10 -16 -5 -3 -10 1 -10 9 0 9 5 16 10 16 6 0 10 -4
10 -9z m104 -96 c-4 -8 -8 -15 -10 -15 -2 0 -4 7 -4 15 0 8 4 15 10 15 5 0 7
-7 4 -15z m906 5 c0 -5 -2 -10 -4 -10 -3 0 -8 5 -11 10 -3 6 -1 10 4 10 6 0
11 -4 11 -10z m-759 -37 c-8 -15 -10 -15 -11 -2 0 17 10 32 18 25 2 -3 -1 -13
-7 -23z"/>
<path d="M247 1363 c-14 -13 -6 -60 12 -77 17 -15 20 -16 34 -1 13 12 14 21 6
43 -13 35 -37 51 -52 35z m33 -44 c0 -17 -4 -28 -10 -24 -5 3 -10 17 -10 31 0
13 5 24 10 24 6 0 10 -14 10 -31z"/>
<path d="M590 1169 c0 -20 4 -29 13 -27 18 7 20 45 3 51 -12 5 -16 -1 -16 -24z"/>
<path d="M749 1519 c-13 -10 -28 -19 -33 -19 -7 0 -70 -47 -110 -82 -6 -4 0
-8 14 -8 13 0 20 3 17 7 -10 10 23 43 44 43 9 0 20 6 22 13 4 8 6 8 6 0 1 -6
-13 -23 -30 -37 l-31 -26 39 0 c21 0 45 5 53 11 11 8 7 9 -17 4 -41 -8 -42 0
-3 20 34 17 44 19 35 5 -3 -5 1 -10 10 -10 11 0 15 5 11 15 -3 8 -1 15 3 15
17 0 104 40 99 46 -3 2 -27 -5 -53 -16 -42 -18 -46 -18 -34 -3 10 13 4 11 -24
-6 -52 -32 -57 -21 -7 14 22 15 40 29 40 30 0 8 -32 -2 -51 -16z"/>
<path d="M897 1525 c3 -9 39 -32 80 -51 41 -20 77 -42 80 -51 5 -12 7 -12 14
-2 9 15 -7 39 -26 39 -7 0 -15 7 -19 15 -3 10 1 15 12 15 14 0 15 2 2 9 -8 6
-19 7 -25 3 -5 -4 -20 -7 -31 -7 -19 -1 -21 2 -13 25 l9 25 -20 -24 c-20 -23
-20 -23 -20 -2 0 16 -6 21 -25 21 -18 0 -23 -4 -18 -15z"/>
<path d="M1021 1531 c-9 -6 1 -9 28 -9 22 0 41 3 41 9 0 11 -50 12 -69 0z"/>
<path d="M1103 1527 c-2 -4 1 -15 8 -24 12 -14 10 -15 -21 -9 l-35 6 33 -15
c17 -8 32 -20 32 -25 0 -6 7 -10 15 -10 16 0 21 15 8 23 -5 2 -2 2 5 1 15 -4
16 22 1 31 -6 4 -8 13 -5 20 5 15 -32 17 -41 2z"/>
<path d="M1720 1531 c0 -5 7 -11 14 -14 10 -4 13 -1 9 9 -6 15 -23 19 -23 5z"/>
<path d="M1790 1530 c0 -5 5 -10 10 -10 6 0 10 5 10 10 0 6 -4 10 -10 10 -5 0
-10 -4 -10 -10z"/>
<path d="M1880 1524 c0 -7 8 -10 20 -7 30 8 32 19 4 19 -13 0 -24 -5 -24 -12z"/>
<path d="M2188 1520 c42 -26 52 -26 19 0 -14 11 -31 20 -39 20 -7 0 2 -9 20
-20z"/>
<path d="M2220 1530 c8 -5 20 -10 25 -10 6 0 3 5 -5 10 -8 5 -19 10 -25 10 -5
0 -3 -5 5 -10z"/>
<path d="M2275 1530 c-3 -5 -1 -10 4 -10 6 0 11 5 11 10 0 6 -2 10 -4 10 -3 0
-8 -4 -11 -10z"/>
<path d="M2355 1529 c-4 -6 -13 -8 -21 -5 -9 4 -14 -2 -14 -15 0 -11 5 -17 10
-14 6 3 10 -2 11 -12 0 -14 2 -14 9 5 13 31 53 29 74 -3 9 -14 14 -30 11 -34
-3 -5 4 -7 15 -4 14 4 22 17 26 43 4 27 10 37 20 33 20 -7 27 -39 12 -62 -14
-24 -8 -34 16 -25 11 4 15 13 10 26 -4 12 -1 24 7 29 12 8 11 11 -1 19 -8 5
-10 10 -4 10 5 0 15 -5 22 -12 9 -9 12 -9 12 0 0 6 7 9 15 6 10 -4 15 0 15 10
0 13 -4 15 -16 8 -10 -6 -32 -5 -57 1 -34 9 -42 8 -53 -8 -8 -10 -17 -16 -20
-12 -4 4 -13 2 -20 -4 -9 -7 -17 -4 -29 13 -11 15 -19 19 -22 11 -3 -7 -9 -13
-14 -13 -6 0 -7 5 -4 10 3 6 4 10 1 10 -3 0 -8 -5 -11 -11z m100 -29 c3 -5 -1
-10 -10 -10 -9 0 -13 5 -10 10 3 6 8 10 10 10 2 0 7 -4 10 -10z m75 -44 c0 -3
-4 -8 -10 -11 -5 -3 -10 -1 -10 4 0 6 5 11 10 11 6 0 10 -2 10 -4z"/>
<path d="M810 1519 c0 -5 5 -7 10 -4 6 3 10 8 10 11 0 2 -4 4 -10 4 -5 0 -10
-5 -10 -11z"/>
<path d="M2738 1507 c-10 -10 -19 -12 -31 -5 -11 6 -23 5 -34 -1 -20 -11 -18
-12 45 -14 47 -3 55 2 43 22 -6 10 -11 9 -23 -2z"/>
<path d="M2916 1494 c4 -15 2 -24 -6 -24 -6 0 -8 -5 -5 -10 4 -6 16 -3 30 7
31 22 30 25 0 40 -23 10 -25 10 -19 -13z"/>
<path d="M2958 1513 c6 -2 12 -11 12 -19 0 -8 5 -14 11 -14 6 0 9 -7 5 -15 -3
-8 -1 -15 4 -15 6 0 10 9 10 20 0 11 -4 20 -10 20 -5 0 -10 7 -10 15 0 8 -8
15 -17 14 -11 0 -13 -3 -5 -6z"/>
<path d="M1580 1505 c0 -2 10 -10 23 -16 20 -11 21 -11 8 4 -13 16 -31 23 -31
12z"/>
<path d="M2260 1497 c-14 -8 -32 -11 -40 -9 -9 3 -5 -5 8 -17 12 -12 27 -19
33 -16 6 4 18 0 28 -9 10 -9 22 -16 27 -15 25 4 36 -1 26 -14 -9 -10 -3 -17
23 -31 33 -18 34 -18 57 4 21 21 21 22 3 16 -23 -9 -24 -9 -47 -7 -10 0 -18 6
-18 11 0 6 8 10 18 11 18 1 12 4 -45 24 -13 4 -23 11 -23 16 0 5 -6 6 -13 3
-7 -2 -21 2 -32 10 -20 15 -20 15 3 16 12 0 22 5 22 10 0 13 0 13 -30 -3z"/>
<path d="M2783 1495 c0 -8 4 -12 9 -9 5 3 6 10 3 15 -9 13 -12 11 -12 -6z"/>
<path d="M2815 1500 c3 -5 8 -10 11 -10 2 0 4 5 4 10 0 6 -5 10 -11 10 -5 0
-7 -4 -4 -10z"/>
<path d="M2876 1498 c3 -5 10 -6 15 -3 13 9 11 12 -6 12 -8 0 -12 -4 -9 -9z"/>
<path d="M885 1479 c-4 -5 -17 -9 -28 -8 -51 6 -101 -37 -57 -48 11 -3 17 -10
13 -17 -4 -6 1 -4 12 4 16 13 16 15 2 18 -10 2 -17 7 -17 10 0 9 41 15 113 16
l58 1 -38 17 c-46 20 -50 21 -58 7z"/>
<path d="M1180 1485 c0 -5 10 -19 21 -31 34 -37 19 -57 -40 -52 -36 2 -47 0
-44 -9 3 -7 9 -13 13 -13 5 0 10 -27 12 -60 2 -41 -1 -60 -9 -60 -6 0 -14 8
-17 18 -4 9 -15 28 -26 42 l-19 25 6 -43 c4 -32 2 -42 -8 -42 -11 0 -14 16
-14 65 0 36 3 65 7 65 4 0 20 -19 35 -42 l28 -42 3 29 c3 19 -2 34 -15 43 -10
7 -17 17 -16 21 1 4 -8 8 -20 8 -60 3 -82 10 -81 23 1 14 -43 18 -127 11 -22
-2 -20 -31 3 -31 11 0 16 5 13 10 -3 6 -1 10 4 10 6 0 11 -4 11 -10 0 -5 17
-10 38 -11 20 -1 48 -4 62 -8 14 -4 -18 -6 -71 -4 l-96 3 5 -55 c3 -37 0 -61
-9 -72 -7 -10 -9 -15 -5 -11 5 4 14 4 20 -2 7 -5 53 -10 103 -12 50 -2 89 -7
86 -11 -3 -5 17 -6 43 -3 37 4 41 3 19 -3 -16 -5 -23 -9 -16 -10 9 -1 0 -15
-24 -36 -44 -41 -43 -49 2 -30 20 9 35 23 39 39 3 14 12 26 19 26 19 0 28 -17
13 -23 -9 -4 -10 -6 -1 -6 6 -1 15 4 18 9 3 6 11 10 17 10 7 0 6 -6 -2 -15 -7
-9 -8 -15 -2 -15 14 0 23 28 12 35 -6 4 -14 3 -20 0 -5 -3 -10 1 -10 9 0 8 5
18 10 21 6 3 10 2 10 -2 0 -5 18 -8 39 -6 l40 2 -11 -30 c-7 -21 -7 -34 0 -41
7 -7 13 0 18 26 l6 37 54 -2 c30 -2 59 3 67 9 12 10 16 9 20 -2 4 -11 15 -13
41 -9 23 3 36 2 36 -5 0 -12 -39 -27 -48 -18 -3 4 -25 -12 -49 -36 -45 -44
-54 -45 -57 -4 0 14 -5 26 -10 26 -5 0 -7 3 -4 6 4 3 15 1 25 -5 16 -8 20 -7
20 6 0 12 -8 14 -36 9 -45 -7 -86 -56 -46 -56 9 0 12 6 9 15 -4 8 -1 15 5 15
7 0 11 -17 10 -42 -1 -24 2 -56 6 -72 6 -21 5 -27 -4 -22 -6 4 -11 3 -11 -2 0
-6 7 -13 15 -16 12 -4 14 -10 5 -25 -7 -13 -7 -22 0 -26 5 -3 10 -1 10 5 0 7
7 9 16 6 13 -5 14 -4 5 7 -6 8 -8 27 -5 46 4 20 2 37 -7 48 -10 11 -10 14 -1
9 7 -4 12 -2 12 7 0 14 26 32 41 29 4 -1 17 10 29 23 13 14 32 25 42 25 11 0
16 5 13 10 -9 15 11 12 22 -2 5 -7 14 -25 21 -41 l12 -27 -25 16 c-14 9 -25
12 -25 7 0 -13 33 -43 47 -43 6 0 13 -7 17 -15 3 -8 10 -15 17 -15 7 0 8 7 4
18 -4 9 -8 22 -8 29 0 7 -6 14 -14 17 -7 3 -13 14 -13 25 0 22 -58 111 -73
111 -5 0 -6 18 -2 41 4 25 2 52 -6 70 l-12 30 -92 -3 c-78 -3 -91 -1 -88 12 2
8 -10 28 -26 44 -17 17 -31 26 -31 21z m-303 -107 c-6 -19 11 -48 28 -48 9 0
15 10 15 25 0 14 5 25 10 25 6 0 10 -27 10 -60 0 -33 -4 -60 -10 -60 -5 0 -10
14 -10 31 0 26 -3 30 -22 27 -19 -2 -22 -8 -20 -32 3 -20 0 -27 -9 -24 -8 3
-15 27 -17 66 -3 53 -1 62 13 62 9 0 15 -6 12 -12z m101 -46 c3 -44 6 -52 23
-52 16 0 19 7 19 50 0 28 5 50 10 50 7 0 10 -22 8 -57 -3 -57 -3 -58 -36 -61
-37 -4 -39 0 -45 76 -3 36 -1 52 7 49 6 -2 12 -27 14 -55z m342 41 c0 -8 -13
-13 -31 -13 -20 0 -29 -4 -26 -12 2 -7 12 -12 21 -12 9 1 16 -5 16 -13 0 -8
-8 -13 -17 -11 -10 2 -19 -4 -21 -14 -3 -14 3 -18 27 -18 17 0 31 -4 31 -10 0
-5 -18 -10 -40 -10 l-40 0 2 63 2 63 38 -1 c23 0 38 -5 38 -12z m91 -4 c8 -16
8 -27 -1 -44 -9 -17 -9 -28 -1 -44 8 -14 8 -21 1 -21 -6 0 -16 11 -22 25 -6
14 -17 25 -23 25 -8 0 -10 -10 -7 -25 2 -15 0 -25 -7 -25 -6 0 -12 17 -12 38
-1 20 -2 49 -3 65 -2 24 1 27 31 27 23 0 36 -6 44 -21z m-181 1 c0 -5 -7 -10
-15 -10 -11 0 -14 -11 -12 -50 3 -36 0 -50 -10 -50 -9 0 -11 13 -7 50 5 46 4
50 -15 50 -12 0 -21 5 -21 10 0 6 18 10 40 10 22 0 40 -4 40 -10z"/>
<path d="M1356 1362 c-3 -3 -6 -12 -6 -19 0 -17 42 -14 47 3 4 12 -32 26 -41
16z"/>
<path d="M1826 1474 c-3 -8 -2 -12 4 -9 11 7 50 -75 57 -124 8 -47 50 -111 69
-104 9 3 14 -2 14 -13 0 -15 -2 -16 -9 -5 -16 25 -22 -7 -7 -37 8 -16 12 -32
9 -36 -4 -4 3 -9 15 -13 16 -4 22 -13 22 -34 0 -33 10 -42 28 -23 12 13 8 18
-11 15 -5 -1 -6 3 -2 8 9 16 -6 60 -19 55 -7 -3 -13 2 -13 10 0 8 5 12 10 9 6
-4 7 5 3 23 -18 81 -27 152 -22 175 4 21 0 29 -20 37 -23 11 -24 10 -24 -18 0
-46 -17 -36 -50 29 -33 66 -45 78 -54 55z m114 -152 c-5 -2 -3 -10 5 -19 8 -8
12 -20 8 -26 -4 -7 -9 -4 -14 9 -5 13 -8 14 -8 4 -2 -25 -21 10 -21 38 0 20 2
21 20 10 11 -7 16 -14 10 -16z"/>
<path d="M2388 1473 c7 -3 16 -2 19 1 4 3 -2 6 -13 5 -11 0 -14 -3 -6 -6z"/>
<path d="M2637 1473 c-12 -11 -8 -23 7 -23 8 0 17 -6 19 -12 4 -10 6 -10 6 0
1 7 -6 15 -14 18 -8 4 -12 10 -9 15 6 11 0 12 -9 2z"/>
<path d="M81 1461 c-9 -6 -10 -11 -2 -15 6 -4 11 -2 11 5 0 8 5 7 17 -2 14
-12 16 -12 12 0 -7 19 -20 23 -38 12z"/>
<path d="M1157 1456 c-6 -15 22 -46 41 -46 22 0 12 23 -19 48 -14 10 -18 10
-22 -2z"/>
<path d="M1947 1463 c-3 -5 6 -9 19 -9 13 -1 21 2 18 7 -6 11 -31 12 -37 2z"/>
<path d="M2558 1463 c7 -3 16 -2 19 1 4 3 -2 6 -13 5 -11 0 -14 -3 -6 -6z"/>
<path d="M141 1451 c-18 -12 2 -17 92 -26 43 -4 67 -3 67 4 0 5 -8 10 -17 10
-29 0 -86 7 -108 14 -11 4 -26 3 -34 -2z"/>
<path d="M1670 1456 c0 -2 7 -6 15 -10 8 -3 15 -1 15 4 0 6 -7 10 -15 10 -8 0
-15 -2 -15 -4z"/>
<path d="M1713 1440 c1 -11 7 -20 13 -20 7 0 21 -2 31 -5 11 -3 9 -1 -4 6 -13
7 -23 18 -23 26 0 7 -4 13 -9 13 -6 0 -9 -9 -8 -20z"/>
<path d="M2702 1450 c3 -8 -4 -21 -16 -28 -17 -11 -17 -12 -2 -8 13 5 17 2 13
-8 -4 -10 -1 -13 7 -10 13 5 14 50 0 62 -4 4 -5 0 -2 -8z"/>
<path d="M2818 1453 c7 -3 16 -2 19 1 4 3 -2 6 -13 5 -11 0 -14 -3 -6 -6z"/>
<path d="M2776 1425 c-11 -8 -18 -15 -15 -16 44 -8 62 -8 77 1 13 8 11 9 -12
4 -25 -6 -28 -4 -23 10 8 20 -2 20 -27 1z"/>
<path d="M2966 1433 c-3 -4 -12 -8 -19 -9 -7 -1 -23 -7 -37 -12 l-25 -11 26 0
c22 -1 88 38 68 39 -3 0 -9 -3 -13 -7z"/>
<path d="M2303 1418 c-28 -14 -30 -27 -3 -25 10 1 17 3 15 6 -3 2 0 10 6 18
13 15 12 15 -18 1z"/>
<path d="M2405 1420 c4 -6 11 -8 16 -5 14 9 11 15 -7 15 -8 0 -12 -5 -9 -10z"/>
<path d="M2456 1389 c-4 -22 -15 -58 -26 -80 -11 -21 -20 -52 -20 -69 0 -32
-14 -41 -24 -15 -7 20 -74 20 -96 0 -21 -19 -90 -9 -90 13 0 8 15 44 34 78 30
53 33 64 20 74 -9 8 -26 10 -46 5 -18 -4 -55 -8 -83 -10 -81 -3 -79 -3 -65
-20 7 -9 12 -35 11 -58 -3 -76 10 -174 24 -174 9 0 10 8 4 32 -8 29 -9 57 -8
178 0 15 4 27 9 27 6 0 10 -4 10 -10 0 -12 59 -2 79 14 11 8 13 8 7 -1 -4 -7
-3 -13 2 -13 6 0 12 7 16 15 3 8 12 15 21 15 41 0 -8 -39 -50 -40 -16 0 -39
-7 -49 -15 -24 -18 -14 -20 14 -3 16 11 23 9 40 -10 19 -20 19 -22 3 -22 -15
0 -16 -2 -3 -10 12 -8 12 -10 -5 -10 -17 0 -17 -2 -5 -10 12 -7 8 -10 -15 -10
-23 0 -26 3 -15 10 12 7 10 9 -8 7 -30 -2 -22 -21 11 -25 15 -2 25 -8 22 -13
-4 -5 -1 -9 6 -9 7 0 4 -7 -7 -15 -16 -13 -16 -14 -1 -9 9 3 17 2 17 -4 0 -6
16 -8 40 -5 34 5 40 3 40 -12 0 -10 -7 -26 -16 -36 -15 -16 -14 -17 5 -12 29
7 27 2 -14 -43 -19 -20 -32 -40 -29 -43 3 -3 11 1 17 10 7 8 20 18 30 22 10 4
15 11 12 17 -6 10 7 14 34 10 8 -1 21 6 29 17 13 17 14 16 8 -7 -5 -17 0 -13
14 13 11 20 23 37 25 37 5 0 -10 -42 -25 -71 -13 -22 -4 -24 30 -4 20 11 21
14 7 15 -14 0 -17 5 -11 23 4 12 7 29 7 37 0 8 8 21 19 28 11 8 18 26 18 47 0
19 5 37 11 40 16 11 31 56 32 103 2 54 -8 55 -17 1z m-236 -59 c0 -5 -4 -10
-9 -10 -6 0 -13 5 -16 10 -3 6 1 10 9 10 9 0 16 -4 16 -10z m137 -155 c-7 -5
-21 -21 -30 -35 -13 -19 -17 -21 -17 -7 0 9 -5 17 -11 17 -5 0 -7 -6 -3 -12 5
-9 2 -8 -9 1 -17 13 -16 16 5 38 13 14 30 22 40 20 10 -3 18 0 18 6 0 7 5 5
10 -3 7 -10 6 -18 -3 -25z"/>
<path d="M2525 1420 c-4 -6 -10 -8 -15 -5 -11 7 -33 -32 -26 -48 2 -7 5 -4 5
6 1 9 6 16 12 15 6 -2 18 7 26 20 9 12 13 22 10 22 -3 0 -9 -5 -12 -10z"/>
<path d="M2981 1413 c0 -5 4 -17 9 -28 8 -17 8 -16 7 8 -1 15 -5 27 -9 27 -4
0 -8 -3 -7 -7z"/>
<path d="M2508 1366 c-39 -46 -44 -56 -29 -56 5 0 13 9 16 20 4 11 10 18 15
15 5 -3 12 4 15 16 4 13 12 18 21 15 10 -4 12 -2 8 6 -5 8 -2 9 9 5 9 -3 19
-2 22 3 4 6 2 10 -4 10 -5 0 -15 2 -23 5 -7 2 -30 -15 -50 -39z"/>
<path d="M2640 1390 c0 -5 7 -10 16 -10 8 0 12 5 9 10 -3 6 -10 10 -16 10 -5
0 -9 -4 -9 -10z"/>
<path d="M40 1341 c0 -27 -3 -58 -7 -68 -6 -16 -5 -16 10 -4 19 15 25 121 7
121 -5 0 -10 -22 -10 -49z"/>
<path d="M2016 1379 c4 -8 0 -9 -15 -4 -12 4 -21 2 -21 -4 0 -6 7 -11 15 -11
16 0 17 -2 21 -75 5 -99 12 -147 21 -156 6 -6 9 2 7 23 -3 31 -3 31 6 8 6 -17
7 -2 3 50 -3 41 -5 90 -5 109 2 36 -13 71 -29 71 -6 0 -7 -5 -3 -11z"/>
<path d="M2725 1380 c-3 -6 -1 -9 6 -8 6 2 14 -3 17 -11 2 -8 0 -11 -5 -8 -5
3 -15 1 -23 -4 -11 -7 -7 -9 15 -7 39 4 46 17 18 35 -14 10 -23 11 -28 3z"/>
<path d="M2850 1382 c0 -4 9 -8 20 -9 11 -1 20 2 20 5 0 4 -9 8 -20 9 -11 1
-20 -2 -20 -5z"/>
<path d="M2960 1370 c-6 -11 -8 -20 -6 -20 3 0 10 9 16 20 6 11 8 20 6 20 -3
0 -10 -9 -16 -20z"/>
<path d="M1785 1370 c-3 -5 -16 -10 -27 -10 -20 0 -20 -1 -5 -18 10 -10 15
-21 12 -24 -3 -3 6 -13 20 -22 15 -10 23 -22 19 -29 -4 -7 -4 -9 1 -5 4 4 14
3 22 -3 15 -13 18 -33 3 -24 -5 3 -10 1 -10 -5 0 -6 10 -8 25 -4 16 4 25 2 25
-6 0 -6 -4 -8 -10 -5 -5 3 -10 -2 -10 -12 0 -15 -2 -16 -10 -3 -7 11 -10 5
-10 -25 0 -30 -3 -36 -10 -25 -8 13 -10 13 -10 -2 0 -9 -5 -18 -11 -20 -8 -3
-7 -13 4 -33 13 -23 16 -26 17 -11 0 11 15 42 34 70 19 28 37 65 40 81 4 20 3
25 -3 16 -14 -21 -31 -3 -31 34 0 19 -4 37 -10 40 -5 3 -10 18 -10 32 0 25 0
26 -20 8 -11 -10 -20 -24 -20 -32 0 -7 -4 -13 -10 -13 -15 0 -12 16 5 30 8 7
15 16 15 21 0 12 -17 11 -25 -1z m47 -57 c-6 -2 -9 -10 -6 -15 4 -7 2 -8 -5
-4 -13 9 -5 26 12 25 9 0 8 -2 -1 -6z"/>
<path d="M2311 1366 c-13 -7 -20 -15 -15 -18 5 -3 18 3 28 13 23 22 20 23 -13
5z"/>
<path d="M2685 1370 c4 -6 11 -8 16 -5 14 9 11 15 -7 15 -8 0 -12 -5 -9 -10z"/>
<path d="M2788 1373 c7 -3 16 -2 19 1 4 3 -2 6 -13 5 -11 0 -14 -3 -6 -6z"/>
<path d="M720 1348 c0 -14 6 -19 23 -16 12 2 22 9 22 17 0 8 -10 15 -22 16
-17 1 -23 -4 -23 -17z"/>
<path d="M2560 1360 c-10 -6 -7 -10 13 -16 34 -8 42 -2 18 13 -10 6 -24 8 -31
3z"/>
<path d="M1598 1353 c7 -3 16 -2 19 1 4 3 -2 6 -13 5 -11 0 -14 -3 -6 -6z"/>
<path d="M2340 1350 c0 -5 5 -10 11 -10 5 0 7 5 4 10 -3 6 -8 10 -11 10 -2 0
-4 -4 -4 -10z"/>
<path d="M2663 1345 c0 -8 4 -12 9 -9 5 3 6 10 3 15 -9 13 -12 11 -12 -6z"/>
<path d="M2796 1351 c5 -5 18 -11 29 -13 11 -2 25 -14 32 -28 l13 -25 -2 27
c-1 15 -5 25 -9 22 -4 -2 -12 3 -19 11 -7 8 -22 15 -33 15 -13 0 -17 -4 -11
-9z"/>
<path d="M2918 1353 c7 -3 16 -2 19 1 4 3 -2 6 -13 5 -11 0 -14 -3 -6 -6z"/>
<path d="M2990 1351 c0 -5 -10 -12 -22 -14 -20 -4 -19 -4 5 -6 18 -1 27 4 27
14 0 8 -2 15 -5 15 -3 0 -5 -4 -5 -9z"/>
<path d="M1722 1331 c2 -7 -9 -22 -25 -34 -23 -18 -32 -20 -57 -10 -28 10 -31
9 -36 -13 -8 -30 -21 -30 -85 -3 -27 12 -52 20 -54 17 -7 -7 131 -164 150
-172 9 -3 13 -2 10 4 -3 6 -1 10 4 10 15 0 14 -13 -1 -29 -11 -11 -10 -13 3
-8 13 4 15 1 12 -13 -3 -11 3 -22 15 -29 18 -10 19 -8 12 24 -4 19 -6 36 -3
39 3 2 -1 15 -8 28 -11 21 -11 22 4 9 16 -13 23 -40 30 -111 2 -25 9 -36 22
-39 16 -3 17 -1 7 12 -10 11 -10 17 1 25 12 10 13 4 8 -52 -1 -4 -8 -6 -16 -2
-18 7 -18 7 0 -38 15 -37 35 -48 35 -21 0 19 14 19 30 0 14 -17 6 -50 -10 -40
-12 7 -14 -8 -2 -19 4 -4 7 -13 7 -19 0 -5 6 -12 13 -15 9 -3 10 3 2 23 -8 20
-7 26 2 23 7 -3 17 -18 22 -34 4 -16 12 -37 17 -46 5 -10 6 -24 3 -32 -5 -14
45 -81 53 -72 6 6 -17 49 -33 61 -15 12 0 60 16 50 5 -3 10 1 10 9 0 19 16 21
24 4 4 -9 5 -8 5 2 -3 36 1 41 24 35 15 -4 18 -3 8 3 -9 7 -10 15 -3 29 6 10
7 33 4 50 l-7 32 -12 -24 c-9 -20 -8 -25 3 -25 19 0 17 -10 -5 -39 -12 -16
-21 -20 -25 -12 -4 6 -3 11 3 11 6 0 6 11 1 30 -7 24 -6 30 7 30 9 0 13 6 10
14 -3 8 -1 16 5 18 8 3 8 9 0 24 -9 15 -11 16 -12 3 0 -9 -9 -28 -20 -42 -22
-27 -26 -42 -10 -32 14 8 13 -31 -1 -57 -10 -18 -9 -20 7 -14 18 7 18 6 2 -11
-17 -16 -18 -16 -32 2 -12 16 -11 21 7 35 16 13 17 19 7 25 -9 5 -11 4 -6 -3
4 -7 1 -12 -8 -12 -13 0 -13 4 1 38 8 20 20 43 25 50 8 9 6 12 -8 12 -15 0
-14 4 9 28 15 15 27 33 27 40 0 7 5 12 11 12 6 0 8 -11 5 -27 -7 -31 26 -94
38 -74 4 6 2 11 -4 11 -6 0 -10 10 -9 23 1 12 -3 35 -10 51 -6 16 -9 43 -5 60
5 24 3 28 -6 20 -6 -6 -13 -20 -14 -30 -2 -11 -10 -20 -19 -22 -15 -3 -15 0 1
40 12 28 16 52 11 68 -6 20 -7 21 -8 5 -1 -11 -12 -51 -26 -89 -14 -38 -25
-71 -25 -74 0 -2 -7 -2 -15 2 -13 4 -13 2 -5 -14 20 -37 6 -140 -19 -140 -6 0
-8 6 -5 14 3 8 -1 20 -9 27 -10 10 -12 23 -6 50 12 50 4 94 -20 125 -13 16
-21 21 -21 12 0 -8 5 -19 11 -25 6 -6 12 -17 13 -24 2 -8 7 -22 11 -32 9 -21
-9 -67 -26 -67 -8 0 -6 6 4 18 14 15 14 20 -4 57 -11 21 -18 54 -17 71 2 28 6
32 27 31 19 -2 25 2 22 13 -3 14 -8 42 -10 63 -1 5 -6 5 -12 2 -6 -4 -8 -13
-5 -21 3 -8 -2 -18 -11 -21 -15 -6 -14 -7 3 -14 17 -7 17 -8 -3 -8 -26 -1 -29
9 -10 28 10 11 10 14 0 18 -7 3 -13 9 -13 14 0 6 4 8 9 5 5 -3 14 1 21 9 9 11
9 19 -3 35 -8 12 -13 29 -10 39 2 9 -3 23 -12 31 -12 10 -15 10 -13 1z m-68
-96 c15 -25 32 -44 38 -42 16 3 33 -46 24 -69 -9 -25 -25 -1 -20 30 2 11 2 15
-2 9 -10 -23 -74 70 -74 108 0 17 8 9 34 -36z m94 19 c11 -20 9 -21 -28 -19
-25 1 -37 -1 -33 -8 3 -5 1 -7 -5 -4 -18 12 -7 42 16 42 11 0 24 3 28 8 8 8 8
9 22 -19z m-191 -20 c-3 -3 -12 -4 -19 -1 -8 3 -5 6 6 6 11 1 17 -2 13 -5z
m55 -6 c3 -7 -1 -19 -8 -26 -11 -10 -10 -16 7 -33 22 -22 16 -47 -7 -28 -8 6
-12 14 -9 17 3 3 -5 16 -17 29 l-21 23 22 0 c16 0 21 4 17 15 -3 8 -1 15 3 15
5 0 11 -6 13 -12z m112 -153 c-4 -8 -8 -15 -10 -15 -2 0 -4 7 -4 15 0 8 4 15
10 15 5 0 7 -7 4 -15z m169 -20 c-3 -9 -8 -14 -10 -11 -3 3 -2 9 2 15 9 16 15
13 8 -4z m-43 -225 c0 -5 -5 -10 -11 -10 -5 0 -7 5 -4 10 3 6 8 10 11 10 2 0
4 -4 4 -10z"/>
<path d="M1698 1247 c15 -7 26 -7 33 0 6 6 -1 10 -23 10 -30 0 -30 -1 -10 -10z"/>
<path d="M1525 1320 c-3 -6 1 -7 9 -4 18 7 21 14 7 14 -6 0 -13 -4 -16 -10z"/>
<path d="M2520 1321 c0 -7 -4 -10 -8 -7 -5 3 -19 -4 -31 -15 -19 -18 -20 -23
-9 -37 10 -12 10 -14 1 -8 -7 4 -13 3 -13 -3 0 -5 6 -12 13 -15 8 -3 6 -9 -7
-20 -11 -9 -16 -16 -12 -16 5 0 -2 -9 -15 -20 l-24 -20 32 11 c48 16 77 63 49
81 -8 5 -8 10 1 19 6 6 9 18 6 27 -4 10 -2 13 5 8 12 -7 28 12 18 21 -3 4 -6
1 -6 -6z"/>
<path d="M2626 1312 c-2 -4 0 -14 6 -22 8 -12 9 -12 5 2 -3 9 -1 19 6 22 9 3
9 5 0 5 -6 1 -14 -3 -17 -7z"/>
<path d="M2710 1305 c-11 -13 -10 -14 4 -9 9 3 16 10 16 15 0 13 -6 11 -20 -6z"/>
<path d="M2765 1310 c3 -5 8 -10 11 -10 2 0 4 5 4 10 0 6 -5 10 -11 10 -5 0
-7 -4 -4 -10z"/>
<path d="M2805 1310 c-3 -6 1 -7 9 -4 18 7 21 14 7 14 -6 0 -13 -4 -16 -10z"/>
<path d="M2140 1300 c18 -12 30 -13 30 -2 0 4 -10 9 -22 9 -18 2 -20 0 -8 -7z"/>
<path d="M2885 1300 c-4 -6 3 -10 14 -10 25 0 27 6 6 13 -8 4 -17 2 -20 -3z"/>
<path d="M2970 1286 c0 -2 7 -6 15 -10 8 -3 15 -1 15 4 0 6 -7 10 -15 10 -8 0
-15 -2 -15 -4z"/>
<path d="M2910 1259 c0 -11 27 -12 34 -1 2 4 -4 9 -15 9 -10 1 -19 -2 -19 -8z"/>
<path d="M2250 1250 c0 -5 5 -10 11 -10 5 0 7 5 4 10 -3 6 -8 10 -11 10 -2 0
-4 -4 -4 -10z"/>
<path d="M2870 1250 c0 -5 7 -10 16 -10 8 0 12 5 9 10 -3 6 -10 10 -16 10 -5
0 -9 -4 -9 -10z"/>
<path d="M2775 1235 l-30 -15 35 6 c19 4 44 10 55 15 18 7 18 8 -5 8 -14 0
-38 -6 -55 -14z"/>
<path d="M2117 1225 c-4 -8 -2 -17 2 -20 5 -2 11 4 14 15 6 23 -8 27 -16 5z"/>
<path d="M2147 1233 c-10 -10 -8 -63 2 -63 5 0 9 16 9 35 0 37 -1 39 -11 28z"/>
<path d="M36 1217 c3 -10 9 -15 12 -12 3 3 0 11 -7 18 -10 9 -11 8 -5 -6z"/>
<path d="M329 1173 c0 -45 -2 -53 -9 -35 -11 25 -30 30 -30 7 0 -8 5 -15 11
-15 6 0 9 -6 6 -14 -6 -15 52 -76 72 -76 19 0 62 -48 50 -55 -13 -9 -69 27
-62 38 3 6 1 7 -5 3 -7 -4 -12 -2 -12 4 0 6 -6 8 -12 4 -7 -4 -10 -3 -5 1 9
10 -21 45 -40 45 -31 0 -5 -34 60 -78 48 -32 71 -38 102 -26 14 6 14 8 -1 25
-10 11 -22 29 -28 41 -11 22 -46 34 -46 17 0 -6 -5 -7 -12 -3 -8 5 -6 11 6 19
15 11 14 13 -9 19 -16 4 -25 13 -25 27 0 11 4 17 10 14 6 -3 7 1 4 9 -3 9 -3
16 1 16 14 0 72 -66 79 -88 4 -13 16 -22 27 -22 22 0 16 11 -28 52 -21 20 -31
48 -17 48 9 0 43 -44 44 -56 0 -7 7 -15 16 -18 8 -3 12 -2 9 3 -3 5 5 17 17
25 12 9 18 16 12 16 -5 0 -15 -5 -22 -12 -8 -8 -12 -8 -12 -1 0 14 25 34 33
26 4 -3 7 5 7 19 0 26 -25 56 -37 44 -4 -4 -2 -16 5 -26 17 -28 16 -30 -16
-27 -16 2 -42 16 -58 31 -16 15 -23 26 -15 24 8 -2 17 5 19 15 3 15 -1 18 -20
15 -17 -2 -24 -10 -26 -31 -4 -33 -22 -26 -22 9 0 13 -4 24 -10 24 -5 0 -10
-26 -11 -57z m71 -9 c0 -8 -4 -12 -10 -9 -5 3 -10 10 -10 16 0 5 5 9 10 9 6 0
10 -7 10 -16z"/>
<path d="M435 1219 c3 -4 1 -10 -5 -14 -5 -3 -10 -11 -10 -18 0 -8 3 -8 12 1
7 7 20 12 29 12 30 0 29 25 -2 26 -16 1 -26 -2 -24 -7z"/>
<path d="M1180 1226 c0 -2 6 -9 13 -15 10 -8 14 -7 14 4 0 8 -6 15 -14 15 -7
0 -13 -2 -13 -4z"/>
<path d="M166 1213 c-1 -2 -24 -5 -51 -7 -36 -2 -49 -7 -51 -20 -2 -12 1 -14
10 -7 7 6 21 8 33 5 11 -3 24 -1 27 5 4 6 13 11 19 11 9 0 9 -2 -1 -8 -7 -5
15 -6 48 -4 l60 4 1 -33 c1 -19 1 -37 0 -41 0 -5 3 -8 9 -8 5 0 7 13 4 29 -5
23 -2 30 15 36 12 3 21 12 21 20 0 10 -20 14 -71 17 -39 2 -72 2 -73 1z"/>
<path d="M2583 1172 c0 -14 2 -21 5 -15 4 6 15 9 25 7 20 -3 14 12 -11 25 -14
7 -17 4 -19 -17z"/>
<path d="M2730 1196 c0 -2 7 -9 15 -16 13 -11 14 -10 9 4 -5 14 -24 23 -24 12z"/>
<path d="M445 1180 c-3 -6 1 -7 9 -4 18 7 21 14 7 14 -6 0 -13 -4 -16 -10z"/>
<path d="M1185 1178 c-30 -86 -48 -128 -56 -128 -5 0 -9 -10 -9 -22 1 -21 4
-19 36 17 42 48 66 101 58 127 -6 21 -23 24 -29 6z m25 -28 c0 -5 -5 -10 -11
-10 -5 0 -7 5 -4 10 3 6 8 10 11 10 2 0 4 -4 4 -10z m-17 -40 c-3 -11 -9 -20
-13 -20 -5 0 -6 9 -3 20 3 11 9 20 13 20 5 0 6 -9 3 -20z"/>
<path d="M2176 1175 c3 -8 14 -15 25 -17 18 -3 18 -5 4 -32 -17 -33 -19 -39
-6 -32 5 4 11 2 13 -4 2 -6 9 -1 16 11 8 12 9 18 3 14 -17 -10 -13 4 10 41 17
28 18 34 5 34 -8 0 -17 -4 -21 -10 -3 -6 -15 -6 -30 0 -19 7 -23 6 -19 -5z"/>
<path d="M2500 1172 c0 -4 8 -12 18 -18 15 -10 18 -8 19 7 1 13 -5 19 -18 19
-10 0 -19 -3 -19 -8z"/>
<path d="M2466 1154 c-3 -8 -11 -12 -17 -8 -8 4 -9 -1 -4 -17 5 -19 4 -21 -4
-9 -6 8 -11 11 -11 5 0 -5 -5 -3 -11 5 -9 12 -10 12 -5 -3 3 -10 6 -23 6 -28
0 -5 6 -9 13 -9 14 0 15 -34 3 -62 -5 -10 -14 -15 -24 -11 -13 4 -14 3 -4 -5
21 -14 5 -61 -19 -55 -12 3 -19 0 -19 -9 0 -7 -20 -32 -44 -55 -39 -36 -46
-40 -51 -24 -8 26 -35 22 -35 -6 0 -18 -6 -23 -27 -24 -24 -2 -25 -2 -5 -6 32
-6 27 -16 -18 -36 -49 -21 -57 -21 -67 -2 -7 13 -11 12 -27 -6 -11 -13 -13
-20 -4 -17 7 3 26 1 42 -3 23 -7 39 -3 74 16 59 33 62 32 23 -9 -18 -19 -39
-32 -47 -29 -7 2 -23 -2 -36 -11 -15 -11 -17 -16 -8 -16 13 0 13 -2 0 -10 -20
-13 -33 -13 -25 0 3 5 0 7 -9 4 -8 -3 -12 -12 -9 -20 3 -8 0 -14 -7 -14 -8 0
-10 -9 -6 -26 5 -17 3 -23 -4 -19 -14 9 -13 38 3 54 15 17 8 14 -83 -33 -41
-21 -86 -48 -98 -60 -15 -13 -37 -21 -59 -21 -33 0 -36 -3 -39 -32 -3 -27 -1
-30 17 -26 12 3 32 16 46 29 14 13 28 23 32 22 12 -2 41 14 37 21 -3 4 10 16
27 28 40 27 73 41 64 26 -5 -7 0 -9 11 -6 10 2 24 -3 31 -11 12 -14 15 -14 28
0 8 8 13 21 10 28 -3 8 0 17 7 19 8 3 12 -3 11 -16 -3 -38 26 -77 55 -76 11 0
11 2 2 6 -18 7 -42 57 -42 87 0 15 8 30 20 36 16 8 20 8 20 -4 0 -8 -4 -18
-10 -21 -15 -9 -12 -48 5 -71 12 -16 14 -16 15 -3 0 16 38 109 44 109 9 0 4
-104 -5 -121 -7 -13 -6 -19 1 -19 6 0 8 -5 4 -11 -5 -8 -9 -8 -14 1 -10 16
-112 -20 -150 -53 -25 -23 -33 -25 -62 -16 -43 12 -47 11 -25 -5 10 -8 15 -20
11 -29 -7 -20 -34 -11 -34 12 0 14 -2 14 -10 1 -10 -16 6 -43 21 -35 4 3 16
-6 25 -20 9 -14 21 -25 28 -25 7 0 7 3 1 8 -5 4 -11 12 -12 17 -1 6 -5 18 -8
27 -4 10 -3 18 3 18 5 0 13 -7 16 -16 4 -11 12 -13 28 -8 32 10 59 39 53 56
-5 11 7 20 44 32 27 9 56 16 63 16 7 0 30 14 50 30 l37 30 -3 82 c-1 54 -6 83
-14 86 -7 2 -9 8 -6 13 8 14 -16 40 -30 32 -6 -3 -5 0 2 8 11 12 15 11 26 -3
7 -10 16 -18 20 -18 13 0 41 -26 82 -78 15 -18 32 -31 38 -29 6 2 25 0 41 -5
55 -17 130 -39 149 -43 11 -3 23 -10 26 -16 4 -6 11 -11 16 -11 14 -1 36 -8
74 -25 19 -8 49 -17 65 -20 17 -2 39 -10 50 -17 11 -6 34 -12 50 -11 25 0 30
4 28 23 -2 13 2 32 7 43 7 13 7 19 0 19 -5 0 -10 7 -10 15 0 20 41 36 70 28
16 -4 21 -3 16 5 -7 12 -63 16 -89 6 -12 -4 -14 -18 -10 -65 4 -38 2 -59 -5
-59 -28 0 -144 36 -202 62 -82 38 -234 88 -266 88 -16 0 -28 9 -38 29 -8 15
-32 42 -52 58 -37 29 -37 30 -18 49 11 10 39 34 62 53 50 39 82 97 87 155 1
22 8 54 14 69 13 34 13 37 2 37 -5 0 -12 -7 -15 -16z m-195 -391 c0 -5 2 -42
3 -83 2 -74 -5 -100 -28 -100 -6 0 -3 6 6 14 15 11 15 17 4 51 -8 23 -11 49
-6 65 4 15 3 34 -2 43 -7 13 -5 17 7 17 8 0 15 -3 16 -7z m-96 -33 c-3 -5 -11
-10 -16 -10 -6 0 -7 5 -4 10 3 6 11 10 16 10 6 0 7 -4 4 -10z m26 -43 c-8 -8
-11 -5 -11 9 0 27 14 41 18 19 2 -9 -1 -22 -7 -28z m-146 -27 c-3 -5 -12 -10
-18 -10 -7 0 -6 4 3 10 19 12 23 12 15 0z m-201 -104 c-3 -8 -14 -16 -24 -19
-13 -3 -17 0 -13 9 3 8 9 12 13 9 5 -3 11 -1 15 5 9 15 15 12 9 -4z m220 -83
c-10 -11 -18 -11 -31 -3 -17 10 -16 10 2 8 11 -2 20 3 21 10 3 25 5 27 13 13
6 -9 4 -19 -5 -28z"/>
<path d="M1066 1143 c-4 -5 -13 -8 -18 -8 -6 0 -13 -6 -15 -12 -7 -20 12 -15
32 7 17 19 18 29 1 13z"/>
<path d="M1230 1121 c0 -11 -5 -23 -10 -26 -6 -4 -8 -11 -4 -16 3 -5 9 -7 14
-4 5 3 11 1 15 -5 10 -16 23 -12 27 8 4 19 -19 62 -33 62 -5 0 -9 -9 -9 -19z"/>
<path d="M2725 1130 c-3 -5 1 -10 10 -10 9 0 13 5 10 10 -3 6 -8 10 -10 10 -2
0 -7 -4 -10 -10z"/>
<path d="M1847 1123 c-2 -4 -7 -24 -11 -43 l-6 -35 15 39 c13 35 15 61 2 39z"/>
<path d="M2140 1120 c0 -5 5 -10 11 -10 5 0 7 5 4 10 -3 6 -8 10 -11 10 -2 0
-4 -4 -4 -10z"/>
<path d="M2172 1097 c2 -20 1 -34 -3 -31 -4 2 -9 -5 -12 -16 -3 -10 0 -21 7
-24 7 -3 6 -8 -4 -15 -10 -7 -17 -6 -22 2 -5 7 -8 2 -8 -14 0 -14 -6 -31 -12
-38 -11 -11 -10 -13 3 -8 9 3 20 -3 28 -14 6 -11 18 -18 26 -17 7 2 14 0 14
-4 3 -30 -3 -39 -34 -54 -38 -18 -51 -31 -40 -42 3 -4 11 2 17 13 11 19 11 19
19 0 7 -19 8 -19 8 2 1 12 9 24 21 28 11 3 21 11 21 16 1 5 2 13 3 19 0 5 17
23 36 41 l35 31 -38 -21 c-47 -26 -46 -26 -39 2 8 33 43 76 57 71 7 -3 16 0
20 5 3 6 10 9 15 6 9 -5 50 41 50 56 0 5 -7 9 -15 9 -8 0 -15 -4 -15 -9 0 -5
-9 -11 -20 -14 -11 -3 -20 -12 -20 -21 0 -9 -5 -16 -11 -16 -5 0 -7 6 -4 13 4
6 -9 -5 -28 -27 -19 -21 -36 -35 -39 -30 -2 5 -4 35 -3 67 1 31 -2 60 -8 64
-6 3 -8 -8 -5 -30z m8 -132 c0 -14 -4 -25 -9 -25 -10 0 -21 36 -13 44 12 13
22 5 22 -19z"/>
<path d="M365 1110 c3 -5 11 -10 16 -10 6 0 7 5 4 10 -3 6 -11 10 -16 10 -6 0
-7 -4 -4 -10z"/>
<path d="M1550 1115 c0 -12 75 -115 84 -115 4 0 5 7 2 16 -3 9 -6 22 -6 29 0
7 -18 28 -40 45 -22 17 -40 29 -40 25z"/>
<path d="M1955 1110 c-8 -13 12 -40 29 -40 6 0 3 5 -6 11 -10 5 -15 16 -12 24
7 17 -2 20 -11 5z"/>
<path d="M2060 1110 c0 -5 5 -10 11 -10 5 0 7 5 4 10 -3 6 -8 10 -11 10 -2 0
-4 -4 -4 -10z"/>
<path d="M2135 1071 c-3 -5 -2 -12 3 -15 5 -3 9 1 9 9 0 17 -3 19 -12 6z"/>
<path d="M2540 1071 c0 -6 4 -13 10 -16 6 -3 7 1 4 9 -7 18 -14 21 -14 7z"/>
<path d="M250 1050 c0 -5 5 -10 11 -10 5 0 7 5 4 10 -3 6 -8 10 -11 10 -2 0
-4 -4 -4 -10z"/>
<path d="M1182 1048 c-9 -9 -7 -14 6 -25 15 -12 14 -13 -9 -7 -40 9 -44 -13
-7 -35 18 -11 41 -27 51 -37 14 -15 17 -15 17 -2 0 9 -10 23 -22 32 -13 9 -17
14 -10 11 10 -5 11 0 6 22 -11 45 -18 55 -32 41z"/>
<path d="M1977 1039 c4 -13 8 -18 11 -10 2 7 -1 18 -6 23 -8 8 -9 4 -5 -13z"/>
<path d="M2329 1037 c-10 -17 -9 -17 20 -2 36 18 39 24 10 22 -11 -1 -25 -10
-30 -20z"/>
<path d="M2005 1040 c-3 -5 1 -10 10 -10 9 0 13 5 10 10 -3 6 -8 10 -10 10 -2
0 -7 -4 -10 -10z"/>
<path d="M471 1023 c-1 -12 4 -25 9 -28 12 -7 12 2 0 30 -8 19 -9 19 -9 -2z"/>
<path d="M500 1030 c0 -5 7 -10 16 -10 8 0 12 5 9 10 -3 6 -10 10 -16 10 -5 0
-9 -4 -9 -10z"/>
<path d="M1661 1000 c26 -55 29 -58 29 -34 0 10 -12 33 -25 49 l-26 30 22 -45z"/>
<path d="M1382 977 c-27 -63 -28 -79 -5 -70 11 4 14 3 9 -5 -4 -7 -3 -12 3
-12 5 0 13 5 17 11 7 12 -15 31 -28 23 -12 -7 4 30 16 38 9 6 22 68 13 68 -2
0 -13 -24 -25 -53z"/>
<path d="M2047 1016 c-4 -10 -1 -13 8 -9 8 3 12 9 9 14 -7 12 -11 11 -17 -5z"/>
<path d="M277 1001 c17 -11 36 -29 42 -40 10 -19 48 -35 101 -44 24 -4 24 -4
-2 -6 -16 0 -28 -6 -28 -12 0 -7 12 -9 35 -5 19 4 35 3 35 -1 0 -5 12 -8 28
-7 15 1 33 -3 39 -8 15 -12 43 -3 43 12 0 6 -8 10 -17 9 -34 -3 -44 1 -37 14
6 9 5 9 -7 0 -16 -13 -62 -6 -53 8 3 5 -3 9 -13 9 -11 0 -23 4 -29 9 -5 5 -24
12 -42 14 -36 6 -73 32 -69 51 1 6 -11 12 -28 14 l-30 3 32 -20z"/>
<path d="M776 1004 c-6 -15 -4 -15 11 -3 10 7 20 15 22 16 2 2 -3 3 -11 3 -9
0 -19 -7 -22 -16z"/>
<path d="M1085 1010 c4 -6 11 -8 16 -5 14 9 11 15 -7 15 -8 0 -12 -5 -9 -10z"/>
<path d="M2264 1005 c-17 -8 -37 -22 -45 -31 -12 -16 -12 -17 1 -9 8 5 24 11
35 13 11 1 29 11 40 22 22 23 13 24 -31 5z"/>
<path d="M2327 994 c-30 -28 -30 -43 0 -25 10 6 14 11 9 11 -5 0 -1 9 9 20 26
28 15 25 -18 -6z"/>
<path d="M510 995 c-13 -16 17 -30 34 -16 7 6 23 0 46 -20 l35 -29 -30 12
c-16 7 -33 17 -36 21 -4 5 -10 4 -13 -2 -4 -6 -12 -9 -17 -6 -5 4 -6 -2 -2
-11 4 -11 8 -13 11 -6 2 7 8 12 13 12 6 0 7 -5 4 -11 -4 -6 0 -9 11 -7 13 2
18 -2 16 -13 -1 -8 12 -28 29 -43 25 -23 33 -26 40 -15 16 25 -1 63 -43 101
-45 40 -82 52 -98 33z m140 -110 c0 -8 -4 -15 -9 -15 -13 0 -22 16 -14 24 11
11 23 6 23 -9z"/>
<path d="M1230 998 c0 -9 5 -20 10 -23 13 -8 13 5 0 25 -8 13 -10 13 -10 -2z"/>
<path d="M1990 1000 c0 -5 5 -10 11 -10 5 0 7 5 4 10 -3 6 -8 10 -11 10 -2 0
-4 -4 -4 -10z"/>
<path d="M2523 995 c0 -8 4 -15 9 -15 4 0 8 4 8 9 0 6 -4 12 -8 15 -5 3 -9 -1
-9 -9z"/>
<path d="M1360 990 c-8 -5 -11 -12 -7 -16 4 -4 13 -2 19 4 15 15 7 24 -12 12z"/>
<path d="M1811 993 c-1 -6 -4 -20 -7 -30 -5 -17 -5 -17 6 0 6 10 9 23 6 30 -3
9 -5 9 -5 0z"/>
<path d="M640 959 c36 -37 45 -77 26 -114 -17 -33 -14 -44 8 -26 20 16 30 85
17 110 -10 17 -8 19 8 16 11 -2 29 7 42 22 l24 25 -30 -8 c-31 -9 -52 -9 -97
-1 l-27 4 29 -28z"/>
<path d="M2012 983 c-6 -2 -9 -9 -6 -15 3 -5 -2 -16 -12 -23 -11 -8 -14 -15
-8 -15 13 0 28 17 37 43 4 9 5 17 4 16 -1 0 -8 -3 -15 -6z"/>
<path d="M2090 980 c0 -6 -13 -24 -30 -40 -32 -32 -37 -45 -18 -56 7 -4 8 -3
4 5 -4 7 5 26 23 47 28 32 39 54 26 54 -3 0 -5 -5 -5 -10z"/>
<path d="M2358 983 c7 -3 16 -2 19 1 4 3 -2 6 -13 5 -11 0 -14 -3 -6 -6z"/>
<path d="M2578 983 c6 -2 18 -2 25 0 6 3 1 5 -13 5 -14 0 -19 -2 -12 -5z"/>
<path d="M2768 976 c-16 -5 -28 -14 -28 -19 0 -5 7 -6 16 -3 9 3 36 6 60 6 25
0 43 4 40 9 -9 14 -58 18 -88 7z"/>
<path d="M2880 980 c0 -6 7 -10 15 -10 8 0 15 2 15 4 0 2 -7 6 -15 10 -8 3
-15 1 -15 -4z"/>
<path d="M465 964 c-19 -20 -20 -30 0 -14 12 10 18 10 30 0 12 -10 15 -10 15
3 0 22 -27 29 -45 11z"/>
<path d="M1440 955 c0 -8 4 -15 10 -15 5 0 7 7 4 15 -4 8 -8 15 -10 15 -2 0
-4 -7 -4 -15z"/>
<path d="M286 946 c3 -9 10 -16 16 -16 5 0 7 -4 4 -9 -3 -5 1 -14 9 -21 8 -7
15 -10 15 -6 0 4 11 -1 25 -10 14 -9 22 -20 19 -25 -3 -5 -2 -9 3 -8 29 5 53
-2 47 -13 -6 -10 -4 -10 8 0 12 10 27 10 63 2 26 -6 56 -8 66 -5 11 4 19 3 19
-2 0 -5 8 -9 19 -9 12 0 17 6 14 17 -6 23 -32 32 -49 18 -10 -8 -23 -8 -49 1
-19 6 -56 10 -82 9 -40 -3 -48 0 -56 19 -6 12 -16 22 -23 22 -7 0 -26 12 -43
26 -20 16 -29 20 -25 10z"/>
<path d="M420 950 c0 -5 5 -10 11 -10 5 0 7 5 4 10 -3 6 -8 10 -11 10 -2 0 -4
-4 -4 -10z"/>
<path d="M2260 930 c-12 -16 -17 -30 -11 -30 6 0 11 5 11 11 0 8 4 8 14 0 11
-9 16 -9 22 0 4 7 3 9 -3 6 -15 -10 -24 18 -10 32 6 6 8 11 5 11 -4 0 -16 -13
-28 -30z"/>
<path d="M2920 951 c-8 -6 -18 -7 -23 -4 -5 3 -7 0 -5 -8 3 -8 12 -12 19 -10
8 2 30 5 48 6 46 3 54 25 9 25 -18 0 -40 -4 -48 -9z"/>
<path d="M1407 939 c7 -7 15 -10 18 -7 3 3 -2 9 -12 12 -14 6 -15 5 -6 -5z"/>
<path d="M2295 940 c-8 -13 36 -23 48 -11 6 6 7 11 2 12 -6 0 -18 2 -27 4 -10
2 -20 -1 -23 -5z"/>
<path d="M2615 940 c-3 -5 -3 -10 2 -11 4 0 18 -2 31 -3 13 -2 22 3 22 11 0
15 -46 18 -55 3z"/>
<path d="M2738 932 c-27 -2 -48 -7 -48 -12 0 -5 10 -7 22 -5 12 3 26 1 32 -4
7 -6 19 -4 30 5 25 18 21 20 -36 16z"/>
<path d="M480 919 c0 -5 5 -7 10 -4 6 3 10 8 10 11 0 2 -4 4 -10 4 -5 0 -10
-5 -10 -11z"/>
<path d="M1252 919 c2 -7 10 -15 17 -17 8 -3 12 1 9 9 -2 7 -10 15 -17 17 -8
3 -12 -1 -9 -9z"/>
<path d="M2824 918 c-4 -6 -3 -8 3 -5 5 3 22 -3 39 -14 34 -22 51 -25 35 -5
-18 22 -69 37 -77 24z"/>
<path d="M811 904 c7 -9 15 -26 16 -37 2 -12 10 -28 18 -36 12 -12 13 -10 11
12 -4 31 -32 77 -47 77 -8 0 -7 -6 2 -16z"/>
<path d="M1415 899 c-7 -21 -16 -21 -59 -3 -15 6 -18 4 -14 -8 4 -9 2 -20 -3
-25 -6 -6 -5 -14 5 -22 12 -10 14 -9 9 9 -5 18 -2 21 23 17 16 -2 35 1 43 7 8
6 12 7 9 1 -3 -5 0 -16 8 -23 11 -10 14 -10 15 0 0 7 4 4 9 -7 7 -16 9 -17 9
-3 1 9 5 19 10 22 5 4 7 -4 4 -16 -4 -18 -3 -20 6 -8 6 8 15 16 21 16 23 3 24
6 5 13 -11 5 -20 14 -20 21 0 7 -7 15 -15 17 -13 4 -13 3 0 -6 10 -7 11 -11 3
-11 -7 0 -13 -7 -13 -15 0 -20 -27 -8 -33 15 -3 11 0 21 7 24 6 2 3 5 -6 5 -9
1 -20 -8 -23 -20z"/>
<path d="M1996 900 c-4 -14 -7 -29 -7 -34 1 -5 -6 -3 -15 5 -16 13 -16 12 -5
-8 6 -13 17 -24 24 -24 25 -3 52 3 62 13 7 6 1 7 -17 3 -25 -6 -27 -5 -30 32
-3 35 -4 36 -12 13z"/>
<path d="M2078 909 c-10 -5 -18 -18 -18 -27 1 -16 1 -16 11 1 20 35 27 16 10
-30 -10 -28 -26 -52 -40 -59 -19 -10 -20 -12 -6 -18 9 -3 13 -11 9 -17 -5 -8
-3 -9 5 -5 7 5 10 10 7 13 -3 3 4 14 15 26 10 11 19 29 19 39 0 10 5 18 11 18
6 0 8 9 4 20 -4 11 -2 20 4 20 6 0 8 7 5 15 -7 17 -13 18 -36 4z"/>
<path d="M1135 900 c-4 -6 -11 -8 -16 -5 -5 4 -9 2 -9 -3 0 -17 28 -21 34 -6
3 9 10 12 16 9 5 -3 10 -1 10 4 0 14 -27 14 -35 1z"/>
<path d="M2127 888 c-5 -21 -5 -21 7 -5 14 19 42 24 30 5 -4 -7 -3 -8 5 -4 15
10 4 26 -18 26 -11 0 -21 -9 -24 -22z"/>
<path d="M2468 899 c-7 -5 -21 -9 -31 -9 -25 0 -88 -30 -82 -39 2 -4 19 -7 38
-7 28 1 33 -2 29 -16 -5 -22 16 -24 25 -2 3 8 12 13 19 10 21 -8 27 12 10 30
-23 22 -20 27 13 21 16 -3 34 -1 41 6 10 9 11 9 6 0 -7 -13 60 -31 71 -19 4 3
-5 6 -18 6 -23 1 -22 2 6 15 29 13 27 14 -42 13 -39 -1 -78 -5 -85 -9z m-8
-40 c0 -6 -4 -7 -10 -4 -5 3 -10 11 -10 16 0 6 5 7 10 4 6 -3 10 -11 10 -16z"/>
<path d="M2948 889 c-17 -21 -14 -49 4 -49 6 0 5 6 -2 15 -10 12 -9 16 3 21
16 6 32 34 19 34 -4 0 -15 -10 -24 -21z"/>
<path d="M2627 893 c-12 -12 -7 -22 8 -17 8 4 15 10 15 15 0 11 -14 12 -23 2z"/>
<path d="M2660 892 c0 -4 10 -9 22 -9 18 -2 20 0 8 7 -18 12 -30 13 -30 2z"/>
<path d="M2770 889 c0 -6 6 -9 14 -6 8 3 17 1 20 -6 2 -7 5 -4 5 6 1 11 -6 17
-19 17 -11 0 -20 -5 -20 -11z"/>
<path d="M3 878 c-3 -6 -2 -8 4 -5 6 4 21 -5 33 -18 13 -14 20 -25 15 -25 -5
0 -4 -5 3 -12 17 -17 15 -49 -4 -76 -8 -12 -13 -28 -11 -35 3 -7 6 -6 6 4 1
19 25 42 34 33 3 -4 -1 -17 -10 -30 -9 -14 -13 -27 -10 -31 4 -3 11 5 16 19
12 31 34 49 49 39 10 -6 8 -13 -7 -32 l-19 -25 27 2 c27 1 29 9 21 89 -2 17
-3 17 -7 3 -3 -12 -14 -18 -34 -18 -26 0 -29 4 -29 30 0 55 -56 120 -77 88z"/>
<path d="M1539 861 c-19 -38 -22 -48 -9 -31 9 12 10 10 6 -12 -4 -16 -2 -28 3
-28 5 0 8 13 7 29 -1 17 2 28 6 25 4 -3 8 -11 8 -19 0 -8 19 -33 42 -57 23
-24 39 -35 35 -25 -4 10 -7 22 -7 27 0 5 -9 12 -20 15 -11 3 -20 13 -20 21 0
8 4 13 9 9 5 -3 13 0 17 6 4 7 3 9 -3 6 -6 -4 -21 5 -34 20 -23 25 -23 25 -2
14 29 -15 38 -14 24 3 -22 26 -48 25 -62 -3z"/>
<path d="M2730 869 c0 -5 5 -7 10 -4 6 3 10 8 10 11 0 2 -4 4 -10 4 -5 0 -10
-5 -10 -11z"/>
<path d="M896 862 c-4 -7 -3 -12 3 -12 5 0 17 -8 26 -17 16 -16 16 -17 1 -29
-10 -7 -13 -15 -7 -18 13 -8 113 43 106 55 -4 5 -8 9 -11 9 -3 0 -2 -4 1 -10
11 -17 -7 -11 -21 8 -13 16 -14 16 -20 -5 -7 -26 -19 -30 -28 -8 -3 8 -12 15
-20 15 -8 0 -16 5 -18 12 -3 9 -6 9 -12 0z"/>
<path d="M1390 852 c0 -7 -4 -10 -10 -7 -5 3 -10 2 -10 -4 0 -15 20 -25 30
-15 5 5 5 16 0 24 -7 11 -10 11 -10 2z"/>
<path d="M2520 850 c20 -13 33 -13 25 0 -3 6 -14 10 -23 10 -15 0 -15 -2 -2
-10z"/>
<path d="M2770 849 c-14 -4 -18 -7 -8 -8 18 -1 18 -33 -1 -39 -13 -4 16 -31
34 -31 6 0 2 6 -8 13 -15 12 -15 15 -2 26 12 10 15 9 15 -5 0 -13 6 -16 25
-13 14 3 28 1 31 -3 9 -15 56 -11 48 4 -4 6 1 5 12 -5 22 -19 70 -14 78 8 6
16 -10 19 -19 4 -4 -6 -11 -8 -16 -5 -5 4 -9 1 -9 -5 0 -6 -9 -2 -20 8 -16 15
-31 18 -72 14 -49 -4 -52 -3 -38 13 14 16 13 17 -10 10 -23 -7 -24 -6 -6 7 21
16 8 19 -34 7z m117 -55 c-3 -3 -12 -4 -19 -1 -8 3 -5 6 6 6 11 1 17 -2 13 -5z"/>
<path d="M1926 814 c-5 -20 -11 -24 -28 -18 -14 4 -18 2 -14 -5 4 -6 3 -11 -3
-11 -5 0 -12 6 -14 13 -4 8 -6 7 -6 -3 0 -8 12 -29 27 -45 15 -17 26 -29 25
-26 -2 2 6 11 18 19 16 11 18 17 8 28 -6 8 -9 17 -5 21 3 3 6 1 6 -6 0 -7 7
-11 15 -8 8 4 17 1 21 -5 5 -7 2 -8 -6 -3 -10 6 -12 3 -7 -14 3 -14 -1 -26
-14 -34 -17 -13 -16 -14 16 -13 33 1 35 3 29 29 -3 16 -1 27 5 27 6 0 11 7 11
15 0 9 -9 15 -22 15 -30 0 -52 15 -44 28 3 6 2 13 -3 16 -5 3 -12 -6 -15 -20z
m-3 -67 c-3 -5 -10 -4 -15 1 -6 6 -7 16 -3 22 6 9 9 9 16 -1 4 -7 5 -17 2 -22z"/>
<path d="M203 819 c3 -9 -3 -35 -14 -59 -16 -35 -16 -40 -3 -29 13 10 17 10
24 -1 6 -10 12 -11 22 -2 17 13 36 3 33 -19 -4 -22 21 -64 29 -50 4 6 2 11 -3
11 -16 0 -13 42 4 63 13 18 14 18 25 -3 7 -12 10 -35 8 -52 -3 -16 -1 -31 4
-34 4 -3 8 0 8 7 0 8 4 8 15 -1 9 -7 18 -10 22 -6 3 3 1 6 -6 6 -13 0 -12 24
4 65 6 16 5 18 -5 8 -11 -10 -18 -7 -36 12 -20 22 -26 24 -48 14 -20 -10 -29
-9 -43 2 -9 8 -14 9 -10 2 4 -6 3 -14 -2 -17 -12 -8 -21 17 -14 42 3 11 0 29
-7 39 -8 13 -10 13 -7 2z"/>
<path d="M2670 821 c0 -5 -27 -7 -60 -4 -41 4 -60 2 -60 -6 0 -6 5 -11 11 -11
7 0 18 -8 25 -17 12 -16 12 -16 7 4 -5 21 -2 22 23 18 90 -14 115 -15 109 -5
-3 6 -12 7 -18 3 -7 -4 -6 0 2 10 12 15 11 17 -13 17 -14 0 -26 -4 -26 -9z"/>
<path d="M2740 820 c0 -5 5 -10 11 -10 5 0 7 5 4 10 -3 6 -8 10 -11 10 -2 0
-4 -4 -4 -10z"/>
<path d="M2920 820 c0 -5 7 -10 15 -10 8 0 15 5 15 10 0 6 -7 10 -15 10 -8 0
-15 -4 -15 -10z"/>
<path d="M2960 820 c0 -13 11 -13 30 0 12 8 11 10 -7 10 -13 0 -23 -4 -23 -10z"/>
<path d="M156 812 c-2 -4 -1 -14 3 -21 6 -9 11 -10 15 -2 4 6 2 11 -4 11 -6 0
-8 5 -5 10 3 6 4 10 1 10 -3 0 -7 -4 -10 -8z"/>
<path d="M1185 790 c8 -37 2 -37 -33 -5 -15 14 -28 21 -30 15 -3 -9 46 -59 60
-60 8 0 23 41 20 57 -2 8 4 10 15 6 10 -3 15 -3 12 1 -4 4 -16 9 -28 11 -20 4
-22 1 -16 -25z"/>
<path d="M1485 811 c-3 -6 -10 -9 -14 -7 -4 3 -13 1 -21 -5 -11 -6 -8 -9 12
-9 25 0 46 15 35 26 -3 3 -8 0 -12 -5z"/>
<path d="M2470 813 c8 -4 20 -13 26 -21 12 -16 78 -27 68 -11 -3 5 -16 9 -28
9 -13 0 -29 7 -36 15 -7 8 -20 15 -29 14 -13 0 -14 -2 -1 -6z"/>
<path d="M2140 800 c0 -5 5 -10 10 -10 6 0 10 5 10 10 0 6 -4 10 -10 10 -5 0
-10 -4 -10 -10z"/>
<path d="M638 793 c7 -3 16 -2 19 1 4 3 -2 6 -13 5 -11 0 -14 -3 -6 -6z"/>
<path d="M780 796 c0 -2 7 -7 16 -10 8 -3 12 -2 9 4 -6 10 -25 14 -25 6z"/>
<path d="M2390 785 c7 -8 19 -15 27 -15 8 0 11 -4 8 -10 -3 -5 3 -10 14 -10
12 0 21 -4 21 -10 0 -5 8 -10 18 -10 14 1 12 4 -8 20 -14 11 -34 28 -44 37
-11 10 -16 12 -12 6 4 -7 2 -13 -3 -13 -6 0 -11 5 -11 10 0 6 -5 10 -11 10 -8
0 -8 -5 1 -15z"/>
<path d="M7 779 c8 -8 9 -18 2 -31 -7 -14 -6 -18 5 -18 32 0 30 43 -2 55 -13
5 -14 4 -5 -6z"/>
<path d="M1507 772 c11 -29 30 -44 36 -28 6 16 -3 31 -25 39 -13 4 -15 2 -11
-11z"/>
<path d="M1790 781 c0 -5 5 -13 10 -16 6 -3 10 -2 10 4 0 5 -4 13 -10 16 -5 3
-10 2 -10 -4z"/>
<path d="M2612 763 c2 -10 13 -22 26 -28 12 -5 22 -14 22 -20 0 -5 5 -3 10 5
6 10 10 11 10 3 0 -7 7 -13 16 -13 11 0 7 8 -13 29 -15 16 -31 27 -35 25 -4
-3 -9 0 -13 6 -10 17 -27 11 -23 -7z"/>
<path d="M1210 748 c-10 -21 -10 -21 3 -6 8 10 18 14 22 10 5 -4 5 -1 1 6 -10
17 -14 15 -26 -10z"/>
<path d="M1363 763 c9 -2 23 -2 30 0 6 3 -1 5 -18 5 -16 0 -22 -2 -12 -5z"/>
<path d="M1316 750 c-18 -6 -18 -7 4 -13 28 -7 32 -6 22 9 -4 6 -16 8 -26 4z"/>
<path d="M2088 738 c-22 -17 -30 -19 -42 -9 -11 9 -16 9 -22 0 -4 -8 -3 -9 4
-5 7 4 12 5 12 2 0 -6 -65 -46 -74 -46 -4 0 -4 5 -1 10 3 6 1 10 -5 10 -7 0
-9 -9 -5 -22 6 -23 6 -23 -13 1 -12 15 -25 22 -36 18 -18 -7 -22 -38 -4 -34 7
1 13 -4 14 -10 1 -7 2 -15 3 -18 1 -6 210 102 226 116 20 19 -31 7 -57 -13z"/>
<path d="M2540 750 c-13 -8 -12 -10 3 -10 9 0 17 -7 17 -15 0 -11 11 -15 43
-14 23 1 34 3 25 6 -10 2 -18 9 -18 15 0 5 -6 8 -14 5 -8 -3 -17 1 -20 9 -6
16 -15 17 -36 4z"/>
<path d="M2711 731 c9 -14 18 -17 29 -11 12 6 25 1 46 -16 l29 -25 -27 4 c-15
2 -25 0 -22 -4 3 -5 -7 -11 -21 -15 -30 -7 -33 -24 -4 -24 11 0 17 5 14 10 -3
6 1 11 9 11 9 1 21 3 26 4 6 1 15 3 20 4 6 0 10 10 10 21 0 15 7 20 28 21 15
1 36 2 47 3 11 1 39 3 63 4 23 1 42 7 42 12 0 7 -32 10 -89 8 -49 -1 -87 -6
-85 -10 6 -10 -20 -11 -30 -1 -7 7 -12 9 -64 18 -31 6 -32 5 -21 -14z"/>
<path d="M745 720 c-4 -6 3 -10 14 -10 25 0 27 6 6 13 -8 4 -17 2 -20 -3z"/>
<path d="M865 709 c-4 -6 -4 -13 -1 -16 3 -4 6 -1 6 7 0 9 3 10 13 1 10 -8 14
-7 14 4 0 17 -23 20 -32 4z"/>
<path d="M1525 710 c3 -5 8 -10 11 -10 2 0 4 5 4 10 0 6 -5 10 -11 10 -5 0 -7
-4 -4 -10z"/>
<path d="M197 686 c10 -13 21 -22 26 -19 14 8 7 20 -18 31 l-26 12 18 -24z"/>
<path d="M10 685 c-7 -8 -10 -20 -7 -27 4 -8 6 -7 6 5 1 9 4 17 9 17 11 0 11
-54 0 -67 -10 -13 0 -18 27 -14 6 1 2 -5 -9 -13 -18 -14 -18 -15 2 -13 12 0
19 3 17 6 -3 2 1 11 8 19 8 11 8 14 0 9 -6 -4 -14 -3 -18 3 -3 5 0 10 7 10 10
0 10 2 -1 9 -8 5 -12 19 -9 34 6 30 -14 43 -32 22z"/>
<path d="M1830 692 c0 -13 39 -32 45 -22 3 5 0 12 -7 17 -17 10 -38 13 -38 5z"/>
<path d="M2830 684 c0 -16 9 -18 28 -5 10 6 9 10 -7 14 -14 3 -21 0 -21 -9z"/>
<path d="M2618 683 c7 -3 16 -2 19 1 4 3 -2 6 -13 5 -11 0 -14 -3 -6 -6z"/>
<path d="M120 655 c-7 -9 -10 -18 -7 -21 3 -3 10 4 17 15 13 25 8 27 -10 6z"/>
<path d="M154 662 c3 -6 2 -13 -3 -16 -4 -3 -7 -25 -5 -48 2 -37 1 -40 -8 -21
-10 21 -38 26 -54 10 -4 -3 3 -4 16 -2 16 3 24 -1 27 -15 7 -26 11 -25 40 6
22 24 23 25 2 19 -21 -7 -22 -1 -2 51 2 7 -1 15 -8 20 -7 4 -10 3 -5 -4z"/>
<path d="M271 622 c-1 -8 -6 -10 -13 -6 -9 6 -9 3 0 -9 8 -9 20 -38 28 -64 11
-38 12 -41 9 -13 -5 44 -23 110 -24 92z"/>
<path d="M1707 619 c-21 -12 -13 -29 14 -29 13 0 18 -4 13 -12 -4 -6 -3 -8 3
-5 13 8 11 49 -2 53 -5 2 -18 -1 -28 -7z"/>
<path d="M2301 595 c-17 -20 -31 -40 -31 -46 0 -6 -4 -8 -9 -5 -5 3 -20 -3
-32 -14 -18 -15 -20 -18 -6 -14 15 6 18 2 15 -16 -4 -28 -28 -39 -28 -13 0 14
-4 11 -19 -11 -19 -28 -19 -28 -30 -7 -7 11 -16 21 -22 21 -15 0 -53 -39 -46
-47 4 -4 13 -1 19 5 19 19 29 14 25 -10 -2 -13 -2 -17 0 -10 6 17 22 15 29 -3
5 -11 10 -12 26 -4 11 6 22 8 25 5 9 -8 -7 -26 -25 -26 -16 -1 -16 -1 0 -10
35 -21 56 12 33 50 -7 11 -4 12 65 12 83 0 84 0 71 -16 -8 -10 -9 -16 -1 -21
5 -3 10 -17 10 -31 0 -27 -21 -32 -40 -9 -7 8 -17 15 -23 15 -6 0 8 -14 31
-31 48 -35 50 -46 20 -109 -12 -25 -20 -49 -19 -53 1 -5 -2 -6 -7 -3 -5 3 -15
-6 -22 -19 l-13 -24 -19 24 c-11 14 -23 25 -28 25 -4 0 4 -13 19 -29 l26 -29
27 19 c32 23 38 23 52 4 9 -13 11 -12 12 7 3 66 10 108 18 108 5 0 3 7 -4 15
-11 13 -10 14 5 9 15 -6 16 -4 6 14 -6 11 -11 32 -11 47 0 63 -35 105 -101
119 -14 3 -31 17 -37 30 -9 21 -9 24 3 19 8 -3 15 0 15 6 0 5 14 26 31 46 18
20 29 38 27 41 -3 2 -19 -11 -37 -31z m66 -390 c0 -8 -4 -12 -9 -9 -5 3 -6 10
-3 15 9 13 12 11 12 -6z"/>
<path d="M380 611 c0 -10 39 -58 41 -51 1 3 2 18 3 33 2 26 1 27 -11 11 -12
-16 -13 -16 -13 -1 0 9 -4 17 -10 17 -5 0 -10 -4 -10 -9z"/>
<path d="M1776 590 c-18 -18 -18 -19 2 -13 11 3 23 11 26 19 7 19 -5 17 -28
-6z"/>
<path d="M1957 591 c-7 -27 3 -34 19 -13 17 22 17 32 0 32 -7 0 -16 -9 -19
-19z"/>
<path d="M207 593 c-4 -3 -7 -11 -7 -17 0 -6 5 -5 12 2 6 6 9 14 7 17 -3 3 -9
2 -12 -2z"/>
<path d="M240 580 c0 -5 5 -10 10 -10 6 0 10 5 10 10 0 6 -4 10 -10 10 -5 0
-10 -4 -10 -10z"/>
<path d="M324 565 c-20 -30 -11 -49 16 -32 11 6 20 16 20 21 0 5 -9 1 -20 -9
-24 -22 -26 -8 -4 23 8 12 13 22 10 22 -3 0 -13 -11 -22 -25z"/>
<path d="M675 581 c-3 -5 -1 -12 5 -16 5 -3 10 1 10 9 0 18 -6 21 -15 7z"/>
<path d="M1700 571 c0 -6 -7 -11 -16 -9 -10 2 -19 -3 -22 -10 -3 -10 5 -12 34
-8 22 3 33 3 26 0 -6 -3 -9 -10 -6 -16 4 -6 1 -9 -7 -6 -8 3 -27 -6 -42 -19
-16 -13 -34 -20 -39 -17 -6 4 -8 2 -5 -3 6 -9 -18 -27 -33 -26 -3 1 -11 -5
-18 -13 -19 -21 5 -18 44 6 22 14 35 17 39 10 4 -6 17 -15 29 -20 18 -8 17 -9
-9 -8 -17 1 -37 -2 -45 -7 -13 -8 -13 -6 -1 8 7 9 9 17 3 17 -14 0 -23 -28
-11 -35 5 -4 7 -11 4 -16 -9 -13 9 -11 23 3 6 6 19 13 27 14 25 4 17 -20 -15
-41 -16 -11 -30 -26 -30 -33 0 -17 58 36 70 63 8 18 9 18 9 2 1 -10 -4 -27 -9
-38 -6 -10 -7 -19 -2 -19 14 0 33 26 25 33 -3 4 1 7 9 7 9 0 23 -11 31 -23 13
-20 13 -24 1 -24 -8 0 -14 9 -14 19 0 11 -5 16 -10 13 -6 -4 -7 -12 -4 -18 4
-7 4 -9 -1 -5 -4 4 -14 3 -21 -2 -6 -6 -16 -10 -20 -9 -26 4 -35 -2 -29 -21 8
-25 -7 -26 -29 -1 -10 10 -32 22 -50 25 -18 4 -41 15 -51 26 -18 19 -17 20 10
20 34 0 25 13 -9 15 -18 0 -23 -4 -20 -18 2 -14 -1 -17 -16 -12 -41 13 -17 -5
46 -36 67 -31 94 -49 123 -81 8 -10 21 -18 29 -18 7 0 11 -4 7 -9 -3 -5 -1
-12 5 -16 21 -13 9 23 -12 38 -13 8 -21 17 -18 20 3 3 30 -17 60 -44 65 -60
83 -71 173 -103 64 -24 80 -23 55 2 -9 9 -9 12 -1 12 7 0 15 -4 18 -10 3 -6
18 -11 33 -11 l27 -1 -30 -8 c-27 -7 -25 -8 12 -6 24 1 46 6 50 10 5 4 4 7 -2
6 -29 -6 -37 1 -31 27 4 16 3 23 -1 17 -8 -10 -33 -12 -131 -14 -48 0 -77 16
-152 85 -25 23 -54 46 -65 53 -20 11 -20 11 0 31 19 19 22 20 73 5 43 -13 56
-13 68 -3 19 16 47 21 38 8 -3 -5 -10 -7 -15 -4 -13 9 -11 -19 3 -33 18 -18
27 -14 22 11 -3 12 3 3 13 -20 14 -33 22 -40 33 -33 11 7 11 10 2 10 -7 0 -11
4 -8 8 9 15 -49 107 -77 120 -16 8 -27 15 -25 16 2 0 13 9 24 19 22 18 22 18
45 -28 16 -32 26 -42 33 -35 8 8 6 14 -6 21 -10 6 -18 21 -18 33 0 24 -24 41
-42 30 -6 -4 -15 0 -20 7 -6 10 -7 7 -3 -10 5 -15 3 -21 -3 -17 -6 3 -12 2
-14 -3 -1 -5 -16 -13 -32 -17 -21 -5 -27 -4 -22 5 4 6 0 11 -9 11 -11 0 -15 5
-12 14 4 10 1 13 -9 9 -7 -3 -14 0 -14 7 0 8 -9 10 -25 6 -17 -4 -25 -2 -25 7
0 22 12 28 29 15 13 -10 14 -10 4 2 -19 20 -16 32 5 22 9 -5 26 -6 37 -1 11 4
15 8 8 8 -19 1 -4 29 19 37 11 3 17 8 15 11 -3 3 -14 0 -24 -5 -14 -8 -23 -6
-40 10 -13 12 -23 16 -23 9z m130 -218 l0 -37 -30 29 c-16 16 -30 32 -30 37 0
4 14 8 30 8 28 0 30 -3 30 -37z m40 7 c0 -5 -7 -10 -15 -10 -8 0 -15 5 -15 10
0 6 7 10 15 10 8 0 15 -4 15 -10z"/>
<path d="M64 558 c-5 -7 -3 -8 6 -3 8 5 11 3 8 -6 -3 -8 -11 -13 -17 -11 -7 1
-10 -2 -6 -8 9 -14 44 10 38 27 -6 16 -19 17 -29 1z"/>
<path d="M221 554 c0 -11 3 -14 6 -6 3 7 2 16 -1 19 -3 4 -6 -2 -5 -13z"/>
<path d="M436 561 c-4 -5 -2 -12 4 -16 6 -4 7 -11 4 -17 -4 -7 -2 -8 4 -4 14
9 16 33 3 41 -5 3 -12 1 -15 -4z"/>
<path d="M627 552 c-10 -10 -17 -23 -17 -28 0 -5 7 0 15 10 8 11 15 15 15 10
0 -6 -5 -15 -12 -22 -6 -6 -13 -20 -14 -29 -2 -15 0 -14 15 4 10 12 20 20 22
18 2 -2 4 10 4 26 0 34 -6 36 -28 11z"/>
<path d="M1262 550 c-7 -11 -18 -20 -26 -20 -14 0 -32 -67 -21 -78 8 -9 25 19
25 41 0 10 5 15 10 12 6 -3 10 2 10 12 0 11 5 24 12 31 6 6 10 14 7 16 -3 3
-10 -4 -17 -14z"/>
<path d="M179 543 c-13 -17 -13 -17 6 -3 11 8 22 16 24 17 2 2 0 3 -6 3 -6 0
-17 -8 -24 -17z"/>
<path d="M373 545 c0 -8 4 -12 9 -9 4 3 8 9 8 15 0 5 -4 9 -8 9 -5 0 -9 -7 -9
-15z"/>
<path d="M1170 545 c0 -8 -4 -15 -10 -15 -5 0 -7 -7 -4 -15 4 -8 1 -22 -6 -30
-11 -13 -10 -14 3 -9 10 4 21 -4 31 -23 l15 -28 1 31 c0 17 -7 37 -15 44 -12
10 -13 16 -5 24 8 8 13 7 19 -2 6 -11 10 -10 15 4 3 9 4 19 1 22 -3 3 -5 2 -5
-2 0 -4 -9 -2 -20 4 -16 9 -20 8 -20 -5z"/>
<path d="M1410 540 c0 -5 7 -7 15 -4 8 4 15 1 15 -5 0 -6 14 -11 31 -11 16 0
28 4 25 9 -3 5 -15 7 -25 4 -10 -3 -22 0 -25 6 -9 14 -36 15 -36 1z"/>
<path d="M1915 541 c-3 -5 0 -13 6 -17 8 -5 9 -3 4 6 -6 10 -4 12 8 7 10 -3
17 -2 17 3 0 13 -27 13 -35 1z"/>
<path d="M2374 535 c-4 -8 -15 -15 -26 -15 -10 0 -17 4 -14 8 2 4 -6 9 -20 10
-41 3 -27 -14 20 -25 42 -9 44 -9 49 14 5 26 -1 31 -9 8z"/>
<path d="M1271 507 c-7 -21 -8 -44 -2 -64 5 -17 7 -34 3 -37 -3 -3 0 -6 7 -6
7 0 10 8 7 18 -2 9 -7 26 -10 38 -8 26 29 63 45 47 8 -8 4 -15 -12 -27 -25
-17 -21 -31 8 -22 24 8 49 46 30 46 -8 0 -22 9 -32 20 -25 27 -32 25 -44 -13z"/>
<path d="M1773 529 c-16 -16 10 -114 27 -104 10 6 1 75 -11 91 -5 6 -6 14 -2
17 3 4 4 7 2 7 -3 0 -10 -5 -16 -11z"/>
<path d="M1872 518 c-17 -17 -15 -24 7 -24 14 0 17 4 11 12 -6 6 -7 14 -3 17
3 4 4 7 2 7 -3 0 -10 -5 -17 -12z"/>
<path d="M366 503 c-6 -14 -5 -15 5 -6 7 7 10 15 7 18 -3 3 -9 -2 -12 -12z"/>
<path d="M737 500 c3 -11 9 -20 14 -20 11 0 11 3 3 24 -9 23 -23 20 -17 -4z"/>
<path d="M1027 513 c-12 -12 -7 -22 8 -17 8 4 15 1 15 -6 0 -6 7 -18 15 -26
13 -14 15 -14 15 0 0 9 -5 16 -11 16 -8 0 -7 6 2 17 10 12 11 15 1 9 -7 -4
-19 -3 -26 3 -7 6 -16 8 -19 4z"/>
<path d="M1109 485 c-9 -19 -12 -35 -7 -35 6 0 7 -8 4 -17 -4 -10 -4 -14 1
-10 10 10 32 97 24 97 -3 -1 -13 -16 -22 -35z"/>
<path d="M2154 505 c22 -17 40 -20 32 -6 -3 5 -16 11 -28 14 -22 6 -22 5 -4
-8z"/>
<path d="M2400 510 c0 -5 7 -10 16 -10 8 0 12 5 9 10 -3 6 -10 10 -16 10 -5 0
-9 -4 -9 -10z"/>
<path d="M400 486 c0 -2 8 -10 18 -17 15 -13 16 -12 3 4 -13 16 -21 21 -21 13z"/>
<path d="M662 474 c-11 -12 -9 -14 7 -14 11 0 23 5 26 10 4 6 11 7 17 4 7 -4
8 -2 4 5 -6 9 -11 9 -21 1 -8 -6 -14 -7 -17 -1 -1 5 -9 3 -16 -5z"/>
<path d="M1740 479 c0 -5 -6 -7 -12 -3 -7 4 -9 3 -5 -1 13 -15 36 -14 30 1 -6
17 -13 18 -13 3z"/>
<path d="M1831 487 c2 -1 13 -9 24 -17 19 -14 19 -14 6 3 -7 9 -18 17 -24 17
-6 0 -8 -1 -6 -3z"/>
<path d="M626 464 c-4 -9 -4 -19 -1 -22 2 -3 7 3 11 12 4 9 4 19 1 22 -2 3 -7
-3 -11 -12z"/>
<path d="M1358 475 c-4 -4 -2 -15 5 -26 10 -17 13 -17 29 -2 16 14 18 14 24 0
3 -9 12 -13 20 -10 11 4 7 9 -12 20 -15 7 -33 12 -40 9 -7 -3 -14 0 -16 5 -2
6 -6 7 -10 4z"/>
<path d="M2406 465 c-16 -12 -17 -15 -4 -15 9 0 18 7 22 15 7 18 6 18 -18 0z"/>
<path d="M1316 435 c-15 -11 -17 -22 -13 -51 7 -44 14 -52 30 -34 8 9 8 11 0
6 -20 -11 -25 31 -7 59 20 31 16 39 -10 20z"/>
<path d="M1927 443 c-2 -5 2 -21 9 -38 9 -21 13 -24 14 -11 0 13 5 17 20 13
11 -3 20 -1 20 4 0 5 -7 10 -15 10 -35 3 -40 5 -37 17 2 13 -4 16 -11 5z"/>
<path d="M2272 428 c-7 -7 -12 -19 -12 -28 0 -9 -12 -21 -27 -27 -25 -10 -26
-11 -6 -12 12 -1 24 3 28 9 3 5 12 7 20 4 11 -5 6 -16 -22 -49 -20 -24 -40
-42 -44 -40 -4 3 -12 -2 -19 -10 -7 -8 -17 -12 -23 -8 -6 3 -7 1 -3 -5 9 -15
12 -15 30 4 10 10 16 11 16 3 0 -9 4 -8 15 1 9 7 25 10 41 6 20 -5 25 -4 21 7
-3 7 2 23 12 35 14 18 19 19 33 8 15 -11 16 -18 7 -47 -7 -19 -16 -38 -20 -43
-5 -6 -9 -15 -9 -20 0 -20 24 15 41 58 l16 44 -48 37 c-42 32 -47 40 -38 57
13 23 7 32 -9 16z"/>
<path d="M1150 421 c-8 -3 -16 -12 -18 -20 -3 -12 -1 -12 13 -1 14 11 17 10
22 -8 8 -31 21 -28 15 3 -5 30 -12 35 -32 26z"/>
<path d="M1397 418 c-14 -8 -9 -13 19 -22 16 -5 23 -2 27 13 3 15 0 19 -15 18
-10 -1 -24 -5 -31 -9z"/>
<path d="M2083 392 c-9 -23 -20 -42 -25 -42 -13 0 -9 24 8 48 13 19 13 22 1
22 -8 0 -20 -13 -25 -29 -9 -24 -7 -32 7 -45 16 -15 20 -15 31 -1 7 8 17 12
24 8 6 -4 5 1 -3 10 -12 15 -11 17 2 17 23 0 27 13 11 35 -13 18 -15 17 -31
-23z"/>
<path d="M2406 417 c3 -10 9 -15 12 -12 3 3 0 11 -7 18 -10 9 -11 8 -5 -6z"/>
<path d="M890 410 c-13 -8 -12 -10 3 -10 9 0 17 5 17 10 0 12 -1 12 -20 0z"/>
<path d="M935 411 c-3 -5 -2 -12 3 -15 5 -3 9 1 9 9 0 17 -3 19 -12 6z"/>
<path d="M970 416 c0 -2 7 -7 16 -10 8 -3 12 -2 9 4 -6 10 -25 14 -25 6z"/>
<path d="M1249 417 c-1 -4 -2 -10 -3 -14 -1 -5 -5 -14 -9 -20 -5 -7 -4 -13 2
-13 11 0 25 39 17 47 -3 4 -7 3 -7 0z"/>
<path d="M1584 394 c3 -9 6 -20 6 -25 0 -5 5 -9 10 -9 6 0 10 7 10 15 0 8 -5
15 -11 15 -5 0 -7 5 -4 10 3 6 1 10 -5 10 -7 0 -9 -7 -6 -16z"/>
<path d="M2325 400 c3 -5 8 -10 11 -10 2 0 4 5 4 10 0 6 -5 10 -11 10 -5 0 -7
-4 -4 -10z"/>
<path d="M1324 388 c-4 -6 -3 -8 4 -4 5 3 13 0 15 -6 3 -8 6 -6 6 5 1 19 -14
23 -25 5z"/>
<path d="M2143 385 c-7 -8 -13 -21 -13 -30 0 -9 -19 -24 -45 -36 -25 -11 -45
-24 -45 -29 0 -15 9 -12 37 10 15 11 29 17 32 14 3 -4 -1 -9 -9 -12 -27 -10
-72 -61 -64 -74 6 -9 9 -9 12 0 4 14 32 16 32 2 0 -5 7 -10 15 -10 9 0 15 -9
15 -25 0 -18 -7 -26 -25 -31 -14 -3 -25 -10 -25 -15 0 -5 12 -6 26 -3 19 5 25
3 20 -4 -7 -11 48 -52 69 -52 6 0 2 5 -8 11 -9 6 -14 15 -11 21 4 6 3 8 -4 5
-5 -4 -17 -4 -26 -1 -14 5 -14 9 0 35 8 16 19 27 24 24 4 -3 15 2 23 10 20 19
28 19 21 0 -4 -9 0 -15 9 -15 10 0 14 -7 10 -23 -4 -21 -4 -21 10 -4 14 17 16
17 31 -5 9 -12 16 -19 16 -14 0 4 -9 20 -21 34 -18 23 -18 28 -5 37 13 10 12
13 -5 23 -27 17 -37 15 -13 -3 26 -20 14 -19 -39 4 -26 11 -48 16 -54 10 -12
-12 -53 1 -53 17 0 7 23 36 51 64 28 28 48 46 44 40 -3 -5 -2 -10 3 -10 6 0
13 7 16 16 3 8 2 12 -4 9 -6 -3 -13 1 -16 9 -7 19 -15 20 -31 1z m17 -169
c-10 -13 -40 -12 -40 1 0 3 7 3 15 0 8 -4 17 -2 20 3 4 6 9 10 12 10 3 0 0 -6
-7 -14z"/>
<path d="M2830 390 l-25 -8 25 -1 c14 0 32 4 40 9 13 9 13 10 0 9 -8 -1 -26
-5 -40 -9z"/>
<path d="M2985 390 c3 -5 8 -10 11 -10 2 0 4 5 4 10 0 6 -5 10 -11 10 -5 0 -7
-4 -4 -10z"/>
<path d="M795 380 c-3 -6 1 -7 9 -4 18 7 21 14 7 14 -6 0 -13 -4 -16 -10z"/>
<path d="M924 382 c3 -5 0 -13 -6 -15 -8 -3 -6 -6 5 -6 19 -1 23 14 5 25 -6 4
-8 3 -4 -4z"/>
<path d="M1361 368 c0 -22 1 -22 9 -3 7 17 9 18 15 4 3 -10 14 -15 24 -12 11
3 18 -1 18 -10 0 -9 -6 -13 -14 -10 -7 3 -13 0 -13 -6 0 -6 17 -11 38 -11 35
1 36 2 18 15 -11 8 -16 15 -11 15 17 0 -29 27 -57 34 -24 6 -28 3 -27 -16z"/>
<path d="M2414 370 c3 -14 6 -31 6 -38 0 -7 4 -11 9 -7 12 7 5 45 -10 59 -9 8
-10 5 -5 -14z"/>
<path d="M976 353 c3 -11 -24 -28 -39 -24 -5 1 -6 -3 -2 -9 4 -6 14 -4 29 5
12 8 26 12 29 8 4 -3 7 -1 7 5 0 7 8 12 18 12 14 0 15 2 2 10 -9 5 -19 5 -26
-1 -7 -5 -14 -6 -16 -2 -3 4 -3 3 -2 -4z"/>
<path d="M1070 361 c0 -6 4 -13 10 -16 6 -3 7 1 4 9 -7 18 -14 21 -14 7z"/>
<path d="M2955 360 c3 -5 8 -10 11 -10 2 0 4 5 4 10 0 6 -5 10 -11 10 -5 0 -7
-4 -4 -10z"/>
<path d="M1040 345 c0 -8 -4 -15 -10 -15 -5 0 -10 -5 -10 -12 0 -6 9 -3 20 7
22 20 26 35 10 35 -5 0 -10 -7 -10 -15z"/>
<path d="M1981 344 c0 -11 3 -14 6 -6 3 7 2 16 -1 19 -3 4 -6 -2 -5 -13z"/>
<path d="M1480 335 c7 -8 17 -12 22 -9 6 4 5 10 -3 15 -22 14 -33 10 -19 -6z"/>
<path d="M1211 324 c0 -11 3 -14 6 -6 3 7 2 16 -1 19 -3 4 -6 -2 -5 -13z"/>
<path d="M1153 318 c-15 -20 -25 -38 -20 -38 3 0 12 11 21 25 17 26 16 35 -1
13z"/>
<path d="M1231 314 c0 -11 3 -14 6 -6 3 7 2 16 -1 19 -3 4 -6 -2 -5 -13z"/>
<path d="M2925 320 c-4 -6 -11 -7 -17 -4 -7 4 -8 2 -4 -5 6 -9 11 -9 22 0 14
11 18 19 10 19 -3 0 -8 -5 -11 -10z"/>
<path d="M2865 310 c3 -5 10 -10 16 -10 5 0 9 5 9 10 0 6 -7 10 -16 10 -8 0
-12 -4 -9 -10z"/>
<path d="M1536 297 c-14 -10 -12 -12 14 -12 32 0 40 9 16 18 -8 3 -21 0 -30
-6z"/>
<path d="M1206 285 c-3 -8 -1 -15 4 -15 13 0 22 18 11 24 -5 3 -11 -1 -15 -9z"/>
<path d="M1157 284 c-3 -5 1 -15 9 -22 16 -14 18 -5 5 17 -5 7 -11 9 -14 5z"/>
<path d="M2125 280 c3 -5 8 -10 11 -10 2 0 4 5 4 10 0 6 -5 10 -11 10 -5 0 -7
-4 -4 -10z"/>
<path d="M985 270 c-3 -5 -1 -10 4 -10 6 0 11 5 11 10 0 6 -2 10 -4 10 -3 0
-8 -4 -11 -10z"/>
<path d="M1534 270 c-12 -5 -26 -15 -30 -22 -6 -10 -5 -11 7 -1 8 6 35 11 61
10 26 0 50 2 53 4 3 3 -1 6 -7 7 -7 0 -24 3 -38 5 -14 3 -35 2 -46 -3z"/>
<path d="M1435 260 c-3 -5 -1 -10 4 -10 6 0 11 5 11 10 0 6 -2 10 -4 10 -3 0
-8 -4 -11 -10z"/>
<path d="M2115 250 c-3 -5 -1 -10 4 -10 6 0 11 5 11 10 0 6 -2 10 -4 10 -3 0
-8 -4 -11 -10z"/>
<path d="M1268 243 c7 -3 16 -2 19 1 4 3 -2 6 -13 5 -11 0 -14 -3 -6 -6z"/>
<path d="M1520 231 c0 -6 4 -13 10 -16 6 -3 7 1 4 9 -7 18 -14 21 -14 7z"/>
<path d="M1616 225 c-3 -8 -1 -25 4 -37 7 -20 8 -17 8 15 -1 41 -3 44 -12 22z"/>
<path d="M763 205 c0 -8 4 -12 9 -9 5 3 6 10 3 15 -9 13 -12 11 -12 -6z"/>
<path d="M2470 214 c0 -18 28 -37 45 -30 8 3 15 11 14 18 0 10 -2 10 -6 1 -7
-19 -30 -16 -42 5 -6 9 -11 12 -11 6z"/>
<path d="M1035 200 c-3 -6 1 -7 9 -4 18 7 21 14 7 14 -6 0 -13 -4 -16 -10z"/>
<path d="M1717 164 c37 -25 81 -47 98 -50 24 -3 22 -1 -10 10 -22 7 -39 19
-37 25 1 6 -4 11 -12 11 -8 0 -21 6 -28 13 -17 18 -53 37 -68 37 -6 0 19 -21
57 -46z"/>
<path d="M1947 192 c5 -11 2 -14 -8 -10 -8 3 -21 -1 -29 -10 -12 -14 -11 -15
11 -8 13 4 43 10 67 13 23 3 45 9 47 14 3 4 -6 6 -20 3 -14 -2 -31 -1 -38 3
-22 14 -36 11 -30 -5z"/>
<path d="M2640 181 c-15 -23 -17 -31 -8 -37 7 -4 10 -4 6 1 -4 4 2 21 13 36
11 16 18 29 15 29 -2 0 -14 -13 -26 -29z"/>
<path d="M525 190 c-3 -5 -1 -10 4 -10 6 0 11 5 11 10 0 6 -2 10 -4 10 -3 0
-8 -4 -11 -10z"/>
<path d="M1850 190 c0 -5 5 -10 11 -10 5 0 7 5 4 10 -3 6 -8 10 -11 10 -2 0
-4 -4 -4 -10z"/>
<path d="M779 173 c-13 -16 -12 -17 4 -4 16 13 21 21 13 21 -2 0 -10 -8 -17
-17z"/>
<path d="M910 177 c0 -6 3 -7 7 -4 3 4 13 1 21 -6 11 -8 14 -8 9 0 -4 7 0 13
10 16 10 2 3 4 -14 4 -18 0 -33 -5 -33 -10z"/>
<path d="M2441 174 c0 -11 3 -14 6 -6 3 7 2 16 -1 19 -3 4 -6 -2 -5 -13z"/>
<path d="M280 176 c0 -2 7 -7 16 -10 8 -3 12 -2 9 4 -6 10 -25 14 -25 6z"/>
<path d="M466 162 c-3 -4 4 -9 15 -9 23 -2 25 3 4 10 -8 4 -16 3 -19 -1z"/>
<path d="M1496 153 c-6 -14 -5 -15 5 -6 7 7 10 15 7 18 -3 3 -9 -2 -12 -12z"/>
<path d="M682 146 c7 -8 15 -12 17 -11 5 6 -10 25 -20 25 -5 0 -4 -6 3 -14z"/>
<path d="M1657 139 c-4 -16 -3 -18 9 -8 7 6 11 15 8 20 -8 13 -11 11 -17 -12z"/>
<path d="M2160 152 c0 -6 9 -12 20 -15 11 -3 20 -3 20 -1 0 2 -9 8 -20 14 -11
6 -20 7 -20 2z"/>
<path d="M2746 152 c-3 -4 4 -9 15 -9 23 -2 25 3 4 10 -8 4 -16 3 -19 -1z"/>
<path d="M255 140 c-13 -6 -15 -9 -5 -9 8 0 22 4 30 9 18 12 2 12 -25 0z"/>
<path d="M738 132 c-17 -20 -6 -20 32 -1 35 17 35 17 7 16 -16 -1 -33 -8 -39
-15z"/>
<path d="M844 141 c3 -5 16 -11 28 -14 22 -6 22 -5 4 8 -22 17 -40 20 -32 6z"/>
<path d="M990 133 c0 -10 4 -14 8 -8 4 6 11 13 16 18 5 4 2 7 -7 7 -10 0 -17
-8 -17 -17z"/>
<path d="M1219 133 c-13 -16 -12 -17 4 -4 16 13 21 21 13 21 -2 0 -10 -8 -17
-17z"/>
<path d="M1291 133 c0 -11 3 -13 6 -5 2 6 10 9 15 6 7 -4 8 -2 4 4 -11 18 -26
14 -25 -5z"/>
<path d="M2308 139 c-9 -5 -33 -25 -52 -44 -20 -19 -38 -35 -40 -35 -2 0 -20
7 -41 16 -25 10 -34 11 -29 3 5 -9 2 -10 -12 -6 -14 5 -12 2 6 -13 14 -11 30
-20 35 -19 6 0 1 6 -9 14 -17 13 -17 15 -4 15 9 0 24 -7 32 -16 9 -8 16 -12
16 -9 0 4 9 -3 21 -16 11 -13 18 -18 14 -12 -4 9 3 13 24 13 27 0 31 4 31 27
0 23 -2 25 -12 11 -12 -15 -58 -32 -58 -21 0 10 64 72 71 68 7 -5 34 23 28 29
-2 3 -12 0 -21 -5z"/>
<path d="M2444 136 c1 -8 5 -18 8 -22 4 -3 5 1 4 10 -1 8 -5 18 -8 22 -4 3 -5
-1 -4 -10z"/>
<path d="M2476 133 c-6 -14 -5 -15 5 -6 7 7 10 15 7 18 -3 3 -9 -2 -12 -12z"/>
<path d="M1145 131 c-3 -5 -1 -12 5 -16 5 -3 10 1 10 9 0 18 -6 21 -15 7z"/>
<path d="M2655 131 c-3 -5 -2 -12 3 -15 5 -3 9 1 9 9 0 17 -3 19 -12 6z"/>
<path d="M375 119 c-4 -6 -5 -12 -2 -15 2 -3 7 2 10 11 7 17 1 20 -8 4z"/>
<path d="M1050 120 c-9 -6 -10 -10 -3 -10 6 0 15 5 18 10 8 12 4 12 -15 0z"/>
<path d="M1405 120 c-3 -5 -1 -10 4 -10 6 0 11 5 11 10 0 6 -2 10 -4 10 -3 0
-8 -4 -11 -10z"/>
<path d="M2940 126 c0 -2 8 -10 18 -17 15 -13 16 -12 3 4 -13 16 -21 21 -21
13z"/>
<path d="M1251 104 c0 -11 3 -14 6 -6 3 7 2 16 -1 19 -3 4 -6 -2 -5 -13z"/>
<path d="M1586 105 c-9 -26 -7 -32 5 -12 6 10 9 21 6 23 -2 3 -7 -2 -11 -11z"/>
<path d="M1711 112 c-1 -8 -6 -10 -13 -6 -10 5 -10 4 -1 -6 15 -16 28 -8 20
12 -4 11 -6 11 -6 0z"/>
<path d="M156 98 c3 -5 10 -6 15 -3 13 9 11 12 -6 12 -8 0 -12 -4 -9 -9z"/>
<path d="M968 103 c7 -3 16 -2 19 1 4 3 -2 6 -13 5 -11 0 -14 -3 -6 -6z"/>
<path d="M1170 101 c0 -7 -4 -9 -10 -6 -6 4 -7 -1 -3 -11 6 -15 7 -15 15 1 6
9 7 19 4 22 -3 4 -6 1 -6 -6z"/>
<path d="M1450 99 c0 -5 5 -7 10 -4 6 3 10 8 10 11 0 2 -4 4 -10 4 -5 0 -10
-5 -10 -11z"/>
<path d="M1901 94 c-9 -10 -25 -15 -47 -12 -38 4 -38 4 -24 -23 8 -14 7 -19
-2 -19 -7 0 -19 -9 -26 -20 -7 -12 -8 -20 -2 -20 5 0 10 5 10 11 0 8 6 7 18
-2 15 -13 16 -12 3 4 -12 15 -11 17 3 17 9 0 16 3 16 8 0 4 20 18 45 31 25 13
45 28 45 32 0 14 -24 10 -39 -7z"/>
<path d="M130 96 c0 -2 8 -10 18 -17 15 -13 16 -12 3 4 -13 16 -21 21 -21 13z"/>
<path d="M1657 80 c7 -26 19 -34 29 -19 4 8 3 9 -4 5 -7 -4 -12 -1 -12 8 0 8
-4 17 -9 20 -5 4 -7 -3 -4 -14z"/>
<path d="M1764 88 c5 -16 -3 -22 -24 -20 -3 0 -7 -11 -8 -25 -1 -15 1 -24 4
-20 4 3 14 2 24 -3 14 -8 17 -5 14 16 -1 15 4 28 12 31 8 3 14 9 14 15 0 5 -5
6 -11 2 -6 -3 -16 0 -21 7 -8 11 -9 10 -4 -3z m1 -38 c3 -5 1 -10 -4 -10 -6 0
-11 5 -11 10 0 6 2 10 4 10 3 0 8 -4 11 -10z"/>
<path d="M2073 93 c-7 -2 -13 -12 -13 -21 0 -14 2 -14 9 -3 7 11 9 11 14 0 3
-8 4 -4 4 9 -1 12 -1 22 -2 21 0 0 -6 -3 -12 -6z"/>
<path d="M393 83 c9 -2 23 -2 30 0 6 3 -1 5 -18 5 -16 0 -22 -2 -12 -5z"/>
<path d="M730 79 c0 -8 5 -21 10 -29 8 -12 9 -10 7 7 -4 26 -17 43 -17 22z"/>
<path d="M895 75 c-16 -8 -23 -14 -14 -15 8 0 24 7 35 15 23 18 18 18 -21 0z"/>
<path d="M1439 78 c7 -10 11 -25 7 -33 -3 -9 -2 -13 4 -10 15 10 12 31 -7 46
-16 13 -17 12 -4 -3z"/>
<path d="M20 70 c0 -6 7 -10 15 -10 19 0 19 6 0 14 -8 3 -15 1 -15 -4z"/>
<path d="M65 70 c7 -11 45 -20 45 -10 0 4 -11 10 -25 12 -13 3 -22 2 -20 -2z"/>
<path d="M178 73 c7 -3 16 -2 19 1 4 3 -2 6 -13 5 -11 0 -14 -3 -6 -6z"/>
<path d="M493 57 c-10 -13 -12 -17 -3 -10 8 6 26 13 40 15 24 3 24 4 3 10 -15
4 -27 -1 -40 -15z"/>
<path d="M934 69 c-4 -8 -3 -9 4 -5 7 4 12 2 12 -3 0 -6 -9 -11 -19 -11 -11 0
-23 -5 -26 -11 -9 -14 4 -27 13 -13 4 6 15 13 25 17 9 3 17 11 17 16 0 16 -18
22 -26 10z"/>
<path d="M1471 75 c1 -19 18 -51 18 -35 0 8 -4 22 -9 30 -5 8 -9 11 -9 5z"/>
<path d="M568 63 c7 -3 16 -2 19 1 4 3 -2 6 -13 5 -11 0 -14 -3 -6 -6z"/>
<path d="M123 40 c-1 -11 2 -20 7 -20 4 0 7 7 6 15 -3 23 -12 26 -13 5z"/>
<path d="M970 51 c0 -6 4 -13 10 -16 6 -3 7 1 4 9 -7 18 -14 21 -14 7z"/>
<path d="M2020 40 c-14 -11 -20 -20 -15 -19 13 0 50 28 44 33 -2 3 -15 -4 -29
-14z"/>
<path d="M2420 50 c-13 -8 -12 -10 3 -10 9 0 17 5 17 10 0 12 -1 12 -20 0z"/>
<path d="M2728 53 c7 -3 16 -2 19 1 4 3 -2 6 -13 5 -11 0 -14 -3 -6 -6z"/>
<path d="M225 40 c-16 -7 -17 -9 -3 -9 9 -1 20 4 23 9 7 11 7 11 -20 0z"/>
<path d="M515 40 c3 -5 12 -7 20 -3 21 7 19 13 -6 13 -11 0 -18 -4 -14 -10z"/>
<path d="M1865 40 c-3 -6 -3 -15 1 -22 4 -7 3 -8 -4 -4 -7 4 -12 2 -12 -3 0
-6 7 -11 15 -11 9 0 15 9 15 25 0 27 -5 31 -15 15z"/>
<path d="M5 30 c-3 -6 1 -7 9 -4 18 7 21 14 7 14 -6 0 -13 -4 -16 -10z"/>
<path d="M1586 27 c3 -10 9 -15 12 -12 3 3 0 11 -7 18 -10 9 -11 8 -5 -6z"/>
</g>
</svg>
